<?xml version="1.0" encoding="UTF-8" standalone="no"?>
<!-- Created with Inkscape (http://www.inkscape.org/) -->

<svg
   xmlns:dc="http://purl.org/dc/elements/1.1/"
   xmlns:cc="http://creativecommons.org/ns#"
   xmlns:rdf="http://www.w3.org/1999/02/22-rdf-syntax-ns#"
   xmlns:svg="http://www.w3.org/2000/svg"
   xmlns="http://www.w3.org/2000/svg"
   xmlns:sodipodi="http://sodipodi.sourceforge.net/DTD/sodipodi-0.dtd"
   xmlns:inkscape="http://www.inkscape.org/namespaces/inkscape"
   width="25.4mm"
   height="16.200001mm"
   viewBox="0 0 25.399999 16.200001"
   version="1.1"
   id="svg8"
   sodipodi:docname="close.svg"
   inkscape:version="0.92.3 (2405546, 2018-03-11)">
  <defs
     id="defs2" />
  <sodipodi:namedview
     id="base"
     pagecolor="#ffffff"
     bordercolor="#666666"
     borderopacity="1.0"
     inkscape:pageopacity="0.0"
     inkscape:pageshadow="2"
     inkscape:zoom="5.6568543"
     inkscape:cx="37.966653"
     inkscape:cy="38.043224"
     inkscape:document-units="mm"
     inkscape:current-layer="layer1"
     showgrid="false"
     showguides="true"
     inkscape:window-width="1600"
     inkscape:window-height="837"
     inkscape:window-x="-8"
     inkscape:window-y="-8"
     inkscape:window-maximized="1" />
  <metadata
     id="metadata5">
    <rdf:RDF>
      <cc:Work
         rdf:about="">
        <dc:format>image/svg+xml</dc:format>
        <dc:type
           rdf:resource="http://purl.org/dc/dcmitype/StillImage" />
        <dc:title></dc:title>
      </cc:Work>
    </rdf:RDF>
  </metadata>
  <g
     inkscape:label="Layer 1"
     inkscape:groupmode="layer"
     id="layer1"
     transform="translate(0,-280.8)">
    <g
       id="g1311"
       transform="translate(-0.51373244,19.865405)">
      <g
         id="g1316"
         transform="translate(3.0495116,-0.0340817)">
        <path
           sodipodi:nodetypes="cccccccc"
           inkscape:connector-curvature="0"
           id="path840-0"
           d="m 21.432969,272.18294 c -0.194032,2.18434 -4.999315,-0.35267 -8.796095,-0.0855 -3.2554961,0.27298 -7.300525,1.88214 -8.9102222,3.76055 l 0.1132812,0.0976 c 1.548385,-1.80686 6.604454,-3.14998 9.042039,-3.20084 3.456197,-0.32066 8.813503,1.9653 8.804338,-0.57429 -0.07354,-0.0425 -0.135233,-0.0543 -0.253341,0.002 z"
           style="color:#000000;font-style:normal;font-variant:normal;font-weight:normal;font-stretch:normal;font-size:medium;line-height:normal;font-family:sans-serif;font-variant-ligatures:normal;font-variant-position:normal;font-variant-caps:normal;font-variant-numeric:normal;font-variant-alternates:normal;font-feature-settings:normal;text-indent:0;text-align:start;text-decoration:none;text-decoration-line:none;text-decoration-style:solid;text-decoration-color:#000000;letter-spacing:normal;word-spacing:normal;text-transform:none;writing-mode:lr-tb;direction:ltr;text-orientation:mixed;dominant-baseline:auto;baseline-shift:baseline;text-anchor:start;white-space:normal;shape-padding:0;clip-rule:nonzero;display:inline;overflow:visible;visibility:visible;opacity:1;isolation:auto;mix-blend-mode:normal;color-interpolation:sRGB;color-interpolation-filters:linearRGB;solid-color:#000000;solid-opacity:1;vector-effect:none;fill:#183657;fill-opacity:1;fill-rule:nonzero;stroke:none;stroke-width:0.15000001;stroke-linecap:butt;stroke-linejoin:miter;stroke-miterlimit:3.79999995;stroke-dasharray:none;stroke-dashoffset:0;stroke-opacity:1;color-rendering:auto;image-rendering:auto;shape-rendering:auto;text-rendering:auto;enable-background:accumulate" />
        <path
           style="fill:#183657;fill-opacity:1;stroke:none;stroke-width:0.26499999;stroke-linecap:butt;stroke-linejoin:miter;stroke-miterlimit:4;stroke-dasharray:none;stroke-opacity:1"
           d="m 3.6315672,276.06883 c 1.019958,-1.41434 3.9002428,-2.05405 4.3977558,0.51348 0.01879,0.17225 0.03365,0.23501 0.01329,0.32719 -0.427597,-2.39014 -3.4585738,-1.89941 -4.4004108,-0.75029 -0.09232,-0.0222 -0.09337,-0.0358 -0.01063,-0.0903 z"
           id="path1296"
           inkscape:connector-curvature="0"
           sodipodi:nodetypes="cccccc" />
        <path
           style="fill:#183657;fill-opacity:1;stroke:none;stroke-width:0.065;stroke-linecap:butt;stroke-linejoin:miter;stroke-miterlimit:4;stroke-dasharray:none;stroke-opacity:1"
           d="m 4.9532142,272.21513 c 0.576586,0.15651 0.692309,2.01662 -1.311016,3.94408 -0.07834,0.0551 -0.121591,0.0517 -0.118118,-0.0295 1.288945,-1.95956 1.635834,-3.27639 1.38484,-3.92668 z"
           id="path1294"
           inkscape:connector-curvature="0"
           sodipodi:nodetypes="ccccc" />
      </g>
      <g
         id="text1261"
         style="font-style:normal;font-weight:normal;font-size:10.58333302px;line-height:1.25;font-family:sans-serif;letter-spacing:0px;word-spacing:0px;fill:#183657;fill-opacity:1;stroke:none;stroke-width:0.26458332"
         aria-label="Zamknij"
         transform="matrix(1.1514207,0,0,1.1514207,-0.19588353,-41.248213)">
        <path
           inkscape:connector-curvature="0"
           id="path1263"
           style="font-style:normal;font-variant:normal;font-weight:normal;font-stretch:normal;font-family:'Christmas Wish';-inkscape-font-specification:'Christmas Wish';fill:#183657;fill-opacity:1;stroke-width:0.26458332"
           d="m 3.4526377,269.39173 c -0.6773333,0 -1.30175,0.15875 -1.8626666,0.47625 0.66675,-1.50283 6.2335831,-2.667 6.2335831,-5.969 0,-0.16933 -0.021167,-0.29633 -0.1693333,-0.34925 -0.2751666,0.16934 -0.6138333,0.23284 -0.9736666,0.23284 -1.27,0 -1.9685,-0.93134 -3.3443333,-0.93134 -1.1218333,0 -2.0108332,0.68792 -2.0108332,1.7145 0,0.8255 0.53975,1.397 1.1429999,1.397 0.4339167,0 0.6244167,-0.17991 0.6773333,-0.32808 -0.4974166,0 -1.5663332,-0.27517 -1.5663332,-1.2065 0,-0.80433 0.6984999,-1.3335 1.5451666,-1.3335 1.0900833,0 1.2805833,1.02658 3.1538332,1.02658 0.28575,0 0.98425,-0.13758 1.3546666,-0.35983 -0.2116666,2.04258 -6.3394164,4.87892 -6.3394164,6.17008 0,0.15875 0.0635,0.29634 0.09525,0.34925 0.22225,-0.40216 1.0583333,-0.52916 1.6086666,-0.52916 1.1218333,0 2.2224999,1.29116 3.7253332,1.29116 0.4868333,0 0.73025,-0.1905 1.016,-0.43391 -0.22225,0.0953 -0.4656667,0.14816 -0.73025,0.14816 -1.1324166,0 -1.9049999,-1.36525 -3.5559999,-1.36525 z" />
        <path
           inkscape:connector-curvature="0"
           id="path1265"
           style="font-style:normal;font-variant:normal;font-weight:normal;font-stretch:normal;font-family:'Christmas Wish';-inkscape-font-specification:'Christmas Wish';fill:#183657;fill-opacity:1;stroke-width:0.26458332"
           d="m 9.7009381,268.28048 c -0.3809999,0.9525 -1.0794999,1.7145 -1.3652499,1.7145 -0.03175,0 -0.0635,-0.0317 -0.0635,-0.0847 0,-0.254 0.4550833,-0.84667 0.4550833,-1.30175 0,-0.30692 -0.34925,-0.4445 -0.5926666,-0.48684 0.074083,0.508 -0.6455834,1.64042 -0.9948333,1.64042 -0.03175,0 -0.084667,-0.0212 -0.084667,-0.127 0,-0.39158 0.5715,-1.94733 1.5980833,-1.82033 -0.7831667,-0.66675 -2.2330833,0.62441 -2.2330833,1.70391 0,0.37042 0.2963333,0.56092 0.5185833,0.56092 0.3386667,0 0.66675,-0.34925 0.92075,-0.74083 -0.021167,0.11641 -0.042333,0.23283 -0.042333,0.3175 0,0.37041 0.1905,0.55033 0.4339166,0.55033 0.4021667,0 1.11125,-0.75142 1.5451666,-1.76742 0.042333,-0.0847 -0.010583,-0.15875 -0.09525,-0.15875 z" />
        <path
           inkscape:connector-curvature="0"
           id="path1267"
           style="font-style:normal;font-variant:normal;font-weight:normal;font-stretch:normal;font-family:'Christmas Wish';-inkscape-font-specification:'Christmas Wish';fill:#183657;fill-opacity:1;stroke-width:0.26458332"
           d="m 12.378025,270.20665 c 0.529167,0 1.49225,-1.27 1.7145,-1.778 0.03175,-0.0847 0.01058,-0.16933 -0.09525,-0.1905 -0.211666,0.59267 -1.2065,1.778 -1.55575,1.778 -0.05292,0 -0.07408,-0.0423 -0.07408,-0.10583 0,-0.51859 0.740833,-1.40759 0.740833,-1.82034 0,-0.34925 -0.22225,-0.56091 -0.518583,-0.56091 -0.306917,0 -0.656167,0.27516 -0.963083,0.59266 0.01058,-0.0635 0.02117,-0.127 0.02117,-0.20108 0,-0.24342 -0.137583,-0.39158 -0.381,-0.39158 -0.254,0 -0.518583,0.17991 -0.836083,0.49741 -0.08467,-0.29633 -0.402167,-0.35983 -0.6879165,-0.30691 0.09525,0.37041 -0.6138333,1.35466 -0.6138333,1.97908 0,0.29633 0.2645833,0.43392 0.4127499,0.45508 0.1375834,-1.0795 1.3229169,-2.44475 1.5874999,-2.44475 0.04233,0 0.0635,0.0212 0.0635,0.0741 0,0.254 -0.6985,1.44991 -0.6985,1.91558 0,0.27517 0.22225,0.381 0.381,0.4445 0.306917,-1.09008 1.248833,-2.43417 1.629833,-2.43417 0.02117,0 0.05292,0.0106 0.05292,0.0423 0,0.17991 -0.719667,1.16416 -0.719667,1.87325 0,0.33866 0.179917,0.58208 0.53975,0.58208 z" />
        <path
           inkscape:connector-curvature="0"
           id="path1269"
           style="font-style:normal;font-variant:normal;font-weight:normal;font-stretch:normal;font-family:'Christmas Wish';-inkscape-font-specification:'Christmas Wish';fill:#183657;fill-opacity:1;stroke-width:0.26458332"
           d="m 17.026755,268.21698 c -0.486833,1.17475 -1.0795,1.651 -1.291167,1.651 -0.232833,0 -0.254,-0.30691 -0.433916,-0.5715 -0.105834,-0.14816 -0.232834,-0.28575 -0.497417,-0.33866 0.804333,-0.0212 1.566333,-0.40217 1.566333,-0.89959 0,-0.26458 -0.243416,-0.508 -0.613833,-0.508 -0.529167,0 -1.090083,0.508 -1.545167,1.22767 0.1905,-0.635 0.5715,-1.524 1.026584,-2.26483 1.132416,-0.15875 2.0955,-0.64559 2.0955,-1.21709 0,-0.27516 -0.1905,-0.42333 -0.47625,-0.42333 -0.740834,0 -1.545167,0.62442 -2.169584,1.50283 -0.08467,0.0106 -0.15875,0.0106 -0.243416,0.0106 -1.4605,0 -2.69875,-0.45509 -2.69875,-1.43934 0,-0.4445 0.381,-1.09008 1.195916,-1.09008 -0.709083,-0.40217 -1.524,0.27517 -1.524,0.94192 0,1.06891 1.259417,1.76741 3.026834,1.76741 h 0.116416 c -0.5715,0.87842 -0.973666,1.97909 -0.973666,2.9845 0,0.41275 0.232833,0.5715 0.359833,0.53975 0.07408,-1.15358 1.153583,-2.36008 1.80975,-2.36008 0.0635,0 0.09525,0.0423 0.09525,0.11642 0,0.28575 -0.804333,0.98425 -1.407583,1.04775 0.34925,0.28575 0.28575,1.31233 1.058333,1.31233 0.41275,0 1.121833,-0.67733 1.608667,-1.78858 0.03175,-0.10584 0.01058,-0.1905 -0.08467,-0.20109 z m -0.169333,-3.16441 c 0.1905,0 0.296333,0.0741 0.296333,0.24341 0,0.43392 -0.814917,0.83609 -1.778,1.00542 0.465667,-0.70908 0.994833,-1.24883 1.481667,-1.24883 z" />
        <path
           inkscape:connector-curvature="0"
           id="path1271"
           style="font-style:normal;font-variant:normal;font-weight:normal;font-stretch:normal;font-family:'Christmas Wish';-inkscape-font-specification:'Christmas Wish';fill:#183657;fill-opacity:1;stroke-width:0.26458332"
           d="m 20.013404,268.19582 c -0.47625,0.92075 -1.30175,1.79916 -1.598083,1.79916 -0.05292,0 -0.07408,-0.0423 -0.07408,-0.11641 0,-0.47625 0.6985,-1.23825 0.6985,-1.7145 0,-0.32809 -0.254,-0.56092 -0.550333,-0.56092 -0.275167,0 -0.592667,0.22225 -0.899583,0.5715 0,-0.27517 -0.381,-0.48683 -0.740834,-0.37042 0.105834,0.34925 -0.402166,1.016 -0.402166,1.87325 0,0.29634 0.148166,0.45509 0.306916,0.45509 0.391584,-1.397 1.36525,-2.36009 1.61925,-2.36009 0.05292,0 0.09525,0.0106 0.09525,0.0847 0,0.1905 -0.677333,1.16417 -0.677333,1.76742 0,0.381 0.232833,0.58208 0.508,0.58208 0.53975,0 1.386417,-1.06892 1.80975,-1.778 0.07408,-0.127 -0.02117,-0.23283 -0.09525,-0.23283 z" />
        <path
           inkscape:connector-curvature="0"
           id="path1273"
           style="font-style:normal;font-variant:normal;font-weight:normal;font-stretch:normal;font-family:'Christmas Wish';-inkscape-font-specification:'Christmas Wish';fill:#183657;fill-opacity:1;stroke-width:0.26458332"
           d="m 20.386963,267.32798 c 0.3175,0 0.497417,-0.34925 0.497417,-0.64558 -0.15875,0.0106 -0.328083,-0.0317 -0.465667,-0.0317 -0.169333,0 -0.370416,0.0953 -0.370416,0.34925 0,0.20108 0.137583,0.32808 0.338666,0.32808 z m -0.529166,2.87867 c 0.560916,0 1.407583,-1.2065 1.703916,-1.78858 0.04233,-0.0741 -0.01058,-0.15875 -0.0635,-0.17992 -0.433916,0.78317 -1.164166,1.66158 -1.418166,1.66158 -0.05292,0 -0.08467,-0.0317 -0.08467,-0.0847 0,-0.35984 0.624417,-1.2065 0.624417,-1.64042 0,-0.27517 -0.328084,-0.45508 -0.635,-0.45508 0,0.45508 -0.518584,1.16416 -0.518584,1.91558 0,0.35983 0.148167,0.5715 0.391584,0.5715 z" />
        <path
           sodipodi:nodetypes="ccssccccsccsssccccssccc"
           inkscape:connector-curvature="0"
           id="path1275"
           style="font-style:normal;font-variant:normal;font-weight:normal;font-stretch:normal;font-family:'Christmas Wish';-inkscape-font-specification:'Christmas Wish';fill:#183657;fill-opacity:1;stroke-width:0.26458332"
           d="m 21.800664,267.37032 c 0.3175,0 0.497417,-0.34925 0.497417,-0.64559 -0.169333,0.0106 -0.328083,-0.0318 -0.47625,-0.0318 -0.15875,0 -0.359833,0.0953 -0.359833,0.34925 0,0.20109 0.137583,0.32809 0.338666,0.32809 z m -0.14767,4.81047 c -0.01108,-0.36793 -0.04051,-0.92408 -0.698996,-1.22272 0.677333,-1.02659 1.04775,-2.29659 1.04775,-2.667 0,-0.37042 -0.381,-0.56092 -0.645584,-0.49742 -0.04233,0.89958 -0.4445,2.08492 -0.963083,2.99508 -0.243416,-0.0529 -0.465666,-0.0952 -0.66675,-0.0952 -1.026583,0 -1.545166,0.635 -1.545166,1.10067 0,0.37042 0.328083,0.61383 0.677333,0.61383 0.804333,0 1.471083,-0.5715 1.979083,-1.28058 0.167183,-0.0205 0.597132,0.36516 0.595388,1.05549 z m -2.794496,0.0473 c -0.254,0 -0.497417,-0.15875 -0.497417,-0.43392 0,-0.42333 0.41275,-0.93133 1.36525,-0.93133 0.15875,0 0.359834,0.0317 0.5715,0.0847 -0.455083,0.75142 -0.973666,1.28059 -1.439333,1.28059 z" />
      </g>
    </g>
  </g>
</svg>
