<?xml version="1.0" encoding="UTF-8" standalone="no"?>
<!-- Created with Inkscape (http://www.inkscape.org/) -->

<svg
   xmlns:dc="http://purl.org/dc/elements/1.1/"
   xmlns:cc="http://creativecommons.org/ns#"
   xmlns:rdf="http://www.w3.org/1999/02/22-rdf-syntax-ns#"
   xmlns:svg="http://www.w3.org/2000/svg"
   xmlns="http://www.w3.org/2000/svg"
   xmlns:sodipodi="http://sodipodi.sourceforge.net/DTD/sodipodi-0.dtd"
   xmlns:inkscape="http://www.inkscape.org/namespaces/inkscape"
   width="24.799999mm"
   height="16mm"
   viewBox="0 0 24.799999 16"
   version="1.1"
   id="svg8"
   sodipodi:docname="open.svg"
   inkscape:version="0.92.3 (2405546, 2018-03-11)">
  <defs
     id="defs2" />
  <sodipodi:namedview
     id="base"
     pagecolor="#ffffff"
     bordercolor="#666666"
     borderopacity="1.0"
     inkscape:pageopacity="0.0"
     inkscape:pageshadow="2"
     inkscape:zoom="2.8284271"
     inkscape:cx="41.177494"
     inkscape:cy="73.566986"
     inkscape:document-units="mm"
     inkscape:current-layer="layer1"
     showgrid="false"
     showguides="true"
     inkscape:window-width="1600"
     inkscape:window-height="837"
     inkscape:window-x="-8"
     inkscape:window-y="-8"
     inkscape:window-maximized="1" />
  <metadata
     id="metadata5">
    <rdf:RDF>
      <cc:Work
         rdf:about="">
        <dc:format>image/svg+xml</dc:format>
        <dc:type
           rdf:resource="http://purl.org/dc/dcmitype/StillImage" />
        <dc:title />
      </cc:Work>
    </rdf:RDF>
  </metadata>
  <g
     inkscape:label="Layer 1"
     inkscape:groupmode="layer"
     id="layer1"
     transform="translate(0,-281)">
    <g
       id="g1245"
       transform="matrix(1.1144996,0,0,1.1144996,-0.03371195,-33.976702)">
      <g
         id="g1330">
        <path
           style="color:#000000;font-style:normal;font-variant:normal;font-weight:normal;font-stretch:normal;font-size:medium;line-height:normal;font-family:sans-serif;font-variant-ligatures:normal;font-variant-position:normal;font-variant-caps:normal;font-variant-numeric:normal;font-variant-alternates:normal;font-feature-settings:normal;text-indent:0;text-align:start;text-decoration:none;text-decoration-line:none;text-decoration-style:solid;text-decoration-color:#000000;letter-spacing:normal;word-spacing:normal;text-transform:none;writing-mode:lr-tb;direction:ltr;text-orientation:mixed;dominant-baseline:auto;baseline-shift:baseline;text-anchor:start;white-space:normal;shape-padding:0;clip-rule:nonzero;display:inline;overflow:visible;visibility:visible;opacity:1;isolation:auto;mix-blend-mode:normal;color-interpolation:sRGB;color-interpolation-filters:linearRGB;solid-color:#000000;solid-opacity:1;vector-effect:none;fill:#183657;fill-opacity:1;fill-rule:nonzero;stroke:none;stroke-width:0.15000001;stroke-linecap:butt;stroke-linejoin:miter;stroke-miterlimit:3.79999995;stroke-dasharray:none;stroke-dashoffset:0;stroke-opacity:1;color-rendering:auto;image-rendering:auto;shape-rendering:auto;text-rendering:auto;enable-background:accumulate"
           d="m 20.017836,287.53758 c -0.442876,0.15891 -0.75879,0.79582 -1.099867,1.56398 l 0.136719,0.0605 c 0.330355,-0.74401 0.600321,-1.06638 0.91601,-1.21863 0.39754,-0.199 0.957418,-0.096 1.298833,0.16201 0.617721,0.51551 0.95516,2.11331 0.225561,3.20627 -1.66991,1.89495 -3.750029,0.47833 -8.486953,0.66209 -3.255496,0.27298 -6.2421917,1.88214 -7.851889,3.76055 l 0.1132812,0.0976 c 1.5483851,-1.80686 5.0550128,-2.91612 8.3111108,-3.18915 3.256097,-0.27304 6.434813,0.76259 8.161976,-1.20236 l 0.0039,-0.004 0.002,-0.004 c 0.770904,-1.15048 0.184708,-3.08138 -0.500174,-3.65294 -0.34244,-0.28578 -0.787593,-0.40109 -1.230468,-0.24218 z"
           id="path840"
           inkscape:connector-curvature="0"
           sodipodi:nodetypes="cccccccccccccccc" />
        <path
           style="fill:#183657;fill-opacity:1;stroke:none;stroke-width:0.065;stroke-linecap:butt;stroke-linejoin:miter;stroke-miterlimit:4;stroke-dasharray:none;stroke-opacity:1"
           d="m 6.4324567,292.04645 c 0.576586,0.15651 0.692309,2.01662 -1.311016,3.94408 -0.07834,0.0551 -0.121591,0.0517 -0.118118,-0.0295 1.288945,-1.95956 1.635834,-3.27639 1.38484,-3.92668 z"
           id="path1229"
           inkscape:connector-curvature="0"
           sodipodi:nodetypes="ccccc" />
        <path
           style="fill:#183657;fill-opacity:1;stroke:none;stroke-width:0.26499999;stroke-linecap:butt;stroke-linejoin:miter;stroke-miterlimit:4;stroke-dasharray:none;stroke-opacity:1"
           d="m 5.1108097,295.90015 c 1.019958,-1.41434 3.9002428,-2.05405 4.3977558,0.51348 0.01879,0.17225 0.03365,0.23501 0.01329,0.32719 -0.427597,-2.39014 -3.4585738,-1.89941 -4.4004108,-0.75029 -0.09232,-0.0222 -0.09337,-0.0358 -0.01063,-0.0903 z"
           id="path1231"
           inkscape:connector-curvature="0"
           sodipodi:nodetypes="cccccc" />
      </g>
      <g
         id="flowRoot815"
         style="font-style:normal;font-variant:normal;font-weight:normal;font-stretch:normal;font-size:40px;line-height:1.25;font-family:'Christmas Wish';-inkscape-font-specification:'Christmas Wish';letter-spacing:0px;word-spacing:0px;display:inline;fill:#183657;fill-opacity:1;stroke:none"
         transform="matrix(0.26458333,0,0,0.26458333,-6.1977643,27.887992)"
         aria-label="Otwórz">
        <path
           style="fill:#183657;fill-opacity:1"
           inkscape:connector-curvature="0"
           id="path823"
           d="m 52.057422,970.84469 c -1.12,3.96 -2.92,6.48 -5.12,7.96 0.04,-0.56 0.08,-1.08 0.08,-1.56 0,-8.84 -6.2,-13.16 -10.72,-13.16 -5.08,0 -7.64,3.72 -7.64,7.88 0,1.4 0.4,2.76 1.12,3.96 -3,3.44 -5.24,8.12 -5.24,12.68 0,4.4 2.24,8.16 7.04,8.16 7.76,0 13.88,-9.56 15.2,-16.84 4.24,-1.96 6.68,-5.68 5.28,-9.08 z m -22.72,1.12 c 0,-4 2.16,-7.2 6.96,-7.2 4.16,0 8.08,3.88 8.08,12.16 0,1 -0.08,2.08 -0.28,3.16 -1.2,0.36 -2.48,0.52 -3.8,0.52 -3.4,0 -6.36,-1.2 -8.36,-3.04 2.6,-3.6 5.8,-6.24 8.36,-6.24 0.48,0 0.88,0.12 1.32,0.36 -0.56,-0.84 -1.76,-1.12 -2.84,-1.12 -2.68,0 -5.84,1.92 -8.56,4.84 -0.56,-1.04 -0.88,-2.24 -0.88,-3.44 z m 2.72,23.84 c -2.8,0 -4.72,-1.68 -4.72,-6.04 0,-3.68 1.8,-8.08 4.24,-11.64 2.12,1.92 5.24,3.16 8.72,3.16 1.28,0 2.52,-0.16 3.68,-0.44 -1.36,7.04 -5.96,14.96 -11.92,14.96 z" />
        <path
           style="fill:#183657;fill-opacity:1"
           inkscape:connector-curvature="0"
           id="path825"
           d="m 62.230547,977.52469 c -2.64,0 -5.56,0.6 -8.04,1.04 0.24,-0.64 0.36,-1.2 0.36,-1.64 0,-1.6 -0.8,-2.32 -2.04,-2.12 0,1.08 -0.48,2.56 -1.2,4.24 -0.36,0.04 -0.68,0.04 -0.96,0.04 -3.48,0 -5.6,-1 -5.6,-2.96 0,-1.04 0.48,-1.84 1.16,-2.64 -1.16,0.24 -2.68,1.44 -2.68,3.52 0,2 2.24,3.2 5.96,3.2 0.52,0 1.08,-0.04 1.68,-0.12 -1.88,4.12 -4.68,9.04 -4.68,11.6 0,1.96 1.12,2.6 2.08,2.6 2.24,0 5.56,-4.84 6.48,-6.68 0.16,-0.32 -0.08,-0.56 -0.32,-0.68 -0.96,1.84 -4.16,6.68 -5.92,6.68 -0.28,0 -0.44,-0.2 -0.44,-0.56 0,-3.16 4.08,-9.48 5.76,-13.52 2.64,-0.56 5.6,-1.32 8.4,-1.32 1.48,0 3.36,0.28 4.36,1.36 -0.36,-1.16 -2,-2.04 -4.36,-2.04 z" />
        <path
           style="fill:#183657;fill-opacity:1"
           inkscape:connector-curvature="0"
           id="path827"
           d="m 69.162422,986.80469 c -0.76,1.32 -2,2.64 -3.52,2.64 -0.16,0 -0.32,0 -0.48,-0.04 0.6,-1.12 0.96,-2.28 0.96,-3.2 0,-1.08 -0.72,-1.84 -1.6,-1.84 -1.36,0 -1.96,1.36 -1.96,2.68 0,1.16 0.6,2.24 1.64,2.76 -1.04,1.76 -2.52,3.32 -3.6,3.32 -0.24,0 -0.48,-0.2 -0.48,-0.72 0,-1.76 1.8,-3.92 1.8,-5.32 0,-1.24 -1.44,-1.96 -2.4,-1.92 0,2.6 -2.48,7.96 -4.52,7.96 -0.24,0 -0.48,-0.2 -0.48,-0.72 0,-1.76 1.84,-3.92 1.84,-5.32 0,-1.24 -1.44,-1.92 -2.12,-1.92 0,1.28 -1.72,4 -1.72,5.6 0,2 1.04,3.04 2.44,3.04 1.12,0 2.24,-1 3.16,-2.36 0.24,1.56 1.2,2.36 2.4,2.36 1.36,0 3.12,-1.76 4.32,-3.76 0.24,0.04 0.52,0.08 0.8,0.08 1.72,0 3,-1.32 3.88,-2.76 0.12,-0.24 -0.04,-0.52 -0.36,-0.56 z m -5.92,0.24 c 0,-0.96 0.36,-2.04 1.28,-2.04 0.44,0 0.92,0.44 0.92,1.2 0,0.84 -0.36,1.92 -0.92,2.96 -0.76,-0.4 -1.28,-1.24 -1.28,-2.12 z" />
        <path
           style="fill:#183657;fill-opacity:1"
           inkscape:connector-curvature="0"
           id="path829"
           d="m 77.169922,979.24469 c 0,-0.44 -0.2,-0.92 -0.64,-1.32 -0.76,1.44 -2.64,2.96 -4.6,3.68 2.36,0.48 5.24,-0.68 5.24,-2.36 z m 1.28,7.44 c -0.68,1 -1.72,2.04 -3.6,2.24 0.24,-0.76 0.36,-1.6 0.36,-2.4 0,-2.24 -1.2,-4.04 -3.04,-4.04 -1.4,0 -2.52,1.08 -2.52,2.76 0,0.24 0,0.48 0.04,0.72 -1.24,1 -2.2,2.64 -2.2,4.32 0,2.36 1.4,3.52 2.92,3.52 1.6,0 3.36,-1.8 4.24,-4.16 2.04,-0.16 3.16,-1.28 3.92,-2.16 0.24,-0.32 0.16,-0.6 -0.12,-0.8 z m -8.12,-1.44 c 0,-1.32 0.8,-2.08 1.84,-2.08 1.48,0 2.4,1.48 2.4,3.36 0,0.84 -0.12,1.68 -0.36,2.44 h -0.08 c -1.16,0 -2.28,-0.52 -3,-1.4 0.72,-1 1.6,-1.88 2.52,-2.44 -0.88,-0.64 -2.16,-0.4 -3.32,0.36 z m 0.4,7.76 c -0.56,0 -0.92,-0.56 -0.92,-1.6 0,-1.08 0.36,-2.2 0.96,-3.2 0.8,0.88 1.96,1.4 3.2,1.44 -0.76,1.96 -2.08,3.36 -3.24,3.36 z" />
        <path
           style="fill:#183657;fill-opacity:1"
           inkscape:connector-curvature="0"
           id="path831"
           d="m 86.590547,986.76469 c -1.52,3.04 -5.76,6.84 -7.4,6.84 -0.16,0 -0.2,-0.08 -0.2,-0.24 0,-1.96 4.28,-5 4.28,-6.68 0,-0.64 -0.44,-1.12 -1.2,-1.56 -0.88,1.08 -1.88,1.76 -2.84,1.76 -0.12,0 -0.2,0 -0.32,-0.04 0.44,-0.88 0.6,-1.48 0.6,-1.96 0,-0.52 -0.36,-1.12 -1.04,-1.12 -0.68,0 -1.24,0.92 -1.24,1.8 0,1.44 0.96,2 2,2 0.2,0 0.36,-0.04 0.52,-0.08 -1.16,1.36 -2.48,3.6 -2.48,4.96 0,1.16 0.72,1.84 1.76,1.84 2.32,0 6.36,-3.92 7.84,-6.8 0.12,-0.32 0,-0.64 -0.28,-0.72 z m -8.12,-2.32 c 0.24,0 0.32,0.24 0.32,0.44 0,0.32 -0.16,0.96 -0.48,1.72 -0.28,-0.2 -0.44,-0.52 -0.44,-1.04 0,-0.6 0.32,-1.12 0.6,-1.12 z" />
        <path
           style="fill:#183657;fill-opacity:1"
           inkscape:connector-curvature="0"
           id="path833"
           d="m 95.153672,986.76469 c -1.56,3.64 -3.96,5.64 -5.32,5.64 -0.96,0 -1.64,-0.56 -2.64,-0.56 -0.52,0 -1.08,0.2 -1.48,0.64 0.44,-1.76 7.48,-5.36 7.48,-6.84 0,-0.2 -0.08,-0.4 -0.32,-0.52 -0.68,0.36 -2,0.48 -2.84,0.48 -1.64,0 -3.08,-0.48 -3.36,-1.32 -0.52,0.64 -0.64,1.16 -0.64,1.6 0.12,1.48 1.16,1.96 2.64,1.96 0.56,0 1.24,-0.16 1.88,-0.4 -2.16,1.64 -5.56,3.48 -5.56,5.32 0,0.48 0.08,0.96 0.28,1.2 0.4,-0.16 0.64,-0.2 1.12,-0.2 0.64,0 1.72,0.52 2.76,0.52 2.52,0 5,-4.16 6.36,-6.92 0.12,-0.32 -0.16,-0.52 -0.36,-0.6 z" />
      </g>
    </g>
  </g>
</svg>
