<?xml version="1.0" encoding="UTF-8" standalone="no"?>
<!-- Created with Inkscape (http://www.inkscape.org/) -->

<svg
   xmlns:dc="http://purl.org/dc/elements/1.1/"
   xmlns:cc="http://creativecommons.org/ns#"
   xmlns:rdf="http://www.w3.org/1999/02/22-rdf-syntax-ns#"
   xmlns:svg="http://www.w3.org/2000/svg"
   xmlns="http://www.w3.org/2000/svg"
   xmlns:sodipodi="http://sodipodi.sourceforge.net/DTD/sodipodi-0.dtd"
   xmlns:inkscape="http://www.inkscape.org/namespaces/inkscape"
   width="360"
   height="510"
   viewBox="0 0 95.249998 134.9375"
   version="1.1"
   id="svg8"
   sodipodi:docname="wishes.svg"
   inkscape:version="0.92.3 (2405546, 2018-03-11)">
  <defs
     id="defs2">
    <marker
       inkscape:stockid="Arrow1Lstart"
       orient="auto"
       refY="0.0"
       refX="0.0"
       id="marker4923"
       style="overflow:visible"
       inkscape:isstock="true">
      <path
         id="path4921"
         d="M 0.0,0.0 L 5.0,-5.0 L -12.5,0.0 L 5.0,5.0 L 0.0,0.0 z "
         style="fill-rule:evenodd;stroke:none;stroke-width:1pt;stroke-opacity:1;fill:#7b9971;fill-opacity:1"
         transform="scale(0.8) translate(12.5,0)" />
    </marker>
    <marker
       inkscape:stockid="Arrow1Lstart"
       orient="auto"
       refY="0.0"
       refX="0.0"
       id="marker4907"
       style="overflow:visible"
       inkscape:isstock="true">
      <path
         id="path4905"
         d="M 0.0,0.0 L 5.0,-5.0 L -12.5,0.0 L 5.0,5.0 L 0.0,0.0 z "
         style="fill-rule:evenodd;stroke:none;stroke-width:1pt;stroke-opacity:1;fill:#7b9971;fill-opacity:1"
         transform="scale(0.8) translate(12.5,0)" />
    </marker>
    <marker
       inkscape:stockid="Arrow1Lstart"
       orient="auto"
       refY="0.0"
       refX="0.0"
       id="marker4873"
       style="overflow:visible"
       inkscape:isstock="true">
      <path
         id="path4871"
         d="M 0.0,0.0 L 5.0,-5.0 L -12.5,0.0 L 5.0,5.0 L 0.0,0.0 z "
         style="fill-rule:evenodd;stroke:none;stroke-width:1pt;stroke-opacity:1;fill:#7b9971;fill-opacity:1"
         transform="scale(0.8) translate(12.5,0)" />
    </marker>
    <marker
       inkscape:isstock="true"
       style="overflow:visible"
       id="marker4839"
       refX="0.0"
       refY="0.0"
       orient="auto"
       inkscape:stockid="Arrow1Lstart">
      <path
         transform="scale(0.8) translate(12.5,0)"
         style="fill-rule:evenodd;stroke:none;stroke-width:1pt;stroke-opacity:1;fill:#7b9971;fill-opacity:1"
         d="M 0.0,0.0 L 5.0,-5.0 L -12.5,0.0 L 5.0,5.0 L 0.0,0.0 z "
         id="path4837" />
    </marker>
  </defs>
  <sodipodi:namedview
     id="base"
     pagecolor="#ffffff"
     bordercolor="#666666"
     borderopacity="1.0"
     inkscape:pageopacity="0.0"
     inkscape:pageshadow="2"
     inkscape:zoom="0.69763422"
     inkscape:cx="-61.611181"
     inkscape:cy="236.87228"
     inkscape:document-units="mm"
     inkscape:current-layer="layer1"
     showgrid="false"
     units="px"
     inkscape:window-width="1600"
     inkscape:window-height="837"
     inkscape:window-x="-8"
     inkscape:window-y="-8"
     inkscape:window-maximized="1" />
  <metadata
     id="metadata5">
    <rdf:RDF>
      <cc:Work
         rdf:about="">
        <dc:format>image/svg+xml</dc:format>
        <dc:type
           rdf:resource="http://purl.org/dc/dcmitype/StillImage" />
        <dc:title></dc:title>
      </cc:Work>
    </rdf:RDF>
  </metadata>
  <g
     inkscape:label="Layer 1"
     inkscape:groupmode="layer"
     id="layer1"
     transform="translate(0,-162.06247)">
    <g
       id="g5891"
       transform="translate(0.16109382)">
      <g
         inkscape:label="g5677"
         transform="matrix(1.2830827,-0.343801,0.343801,1.2830827,-67.62887,-71.652932)"
         id="g5677">
        <path
           inkscape:connector-curvature="0"
           id="path5544"
           style="font-style:normal;font-variant:normal;font-weight:normal;font-stretch:normal;font-size:medium;line-height:1.25;font-family:'Christmas Wish';-inkscape-font-specification:'Christmas Wish';letter-spacing:0px;word-spacing:0px;fill:#183355;fill-opacity:1;stroke:none;stroke-width:0.26458332"
           d="m 32.768594,227.48978 c 0,-2.13783 2.211916,-4.7625 2.211916,-6.35 0,-0.74083 -0.433916,-1.13242 -1.04775,-1.13242 -0.836083,0 -1.947333,0.635 -3.58775,3.85234 0.0635,-0.39159 0.09525,-0.78317 0.09525,-1.17475 0,-1.72509 -0.888999,-2.76225 -2.360083,-2.76225 -1.756833,0 -2.667,1.35466 -2.667,2.413 0,0.96308 0.592667,1.47108 1.3335,1.47108 0.592667,0 0.889,-0.13758 1.005417,-0.52917 -0.878417,0.28575 -2.032,-0.10583 -2.032,-1.17475 0,-0.89958 0.783167,-2.00025 2.360083,-2.00025 1.068917,0 1.7145,0.85725 1.7145,2.30717 0,1.524 -0.455083,3.45017 -0.772583,4.572 l -0.254,0.77258 c 0.0635,0.0106 0.370417,0.0529 0.635,-0.508 0.275167,-0.59266 0.645583,-2.02141 1.068916,-2.94216 0.98425,-2.23309 2.307167,-4.10634 3.386667,-4.10634 0.296333,0 0.465667,0.15875 0.465667,0.49742 0,1.44992 -2.19075,4.20158 -2.19075,6.42408 0,0.86784 0.4445,1.44992 1.132416,1.44992 0.423334,0 0.73025,-0.23283 0.783167,-0.49742 -0.201083,0.20109 -0.486833,0.3175 -0.677333,0.3175 -0.34925,0 -0.60325,-0.34925 -0.60325,-0.89958 z" />
        <path
           inkscape:connector-curvature="0"
           id="path5546"
           style="font-style:normal;font-variant:normal;font-weight:normal;font-stretch:normal;font-size:medium;line-height:1.25;font-family:'Christmas Wish';-inkscape-font-specification:'Christmas Wish';letter-spacing:0px;word-spacing:0px;fill:#183355;fill-opacity:1;stroke:none;stroke-width:0.26458332"
           d="m 37.237241,225.69061 c -0.381,0.9525 -1.0795,1.7145 -1.36525,1.7145 -0.03175,0 -0.0635,-0.0318 -0.0635,-0.0847 0,-0.254 0.455083,-0.84667 0.455083,-1.30175 0,-0.30692 -0.34925,-0.4445 -0.592666,-0.48684 0.07408,0.508 -0.645584,1.64042 -0.994834,1.64042 -0.03175,0 -0.08467,-0.0212 -0.08467,-0.127 0,-0.39158 0.5715,-1.94733 1.598083,-1.82033 -0.783167,-0.66675 -2.233083,0.62441 -2.233083,1.70391 0,0.37042 0.296333,0.56092 0.518583,0.56092 0.338667,0 0.66675,-0.34925 0.92075,-0.74083 -0.02117,0.11641 -0.04233,0.23283 -0.04233,0.3175 0,0.37041 0.1905,0.55033 0.433916,0.55033 0.402167,0 1.11125,-0.75142 1.545167,-1.76742 0.04233,-0.0847 -0.01058,-0.15875 -0.09525,-0.15875 z" />
        <path
           inkscape:connector-curvature="0"
           id="path5548"
           style="font-style:normal;font-variant:normal;font-weight:normal;font-stretch:normal;font-size:medium;line-height:1.25;font-family:'Christmas Wish';-inkscape-font-specification:'Christmas Wish';letter-spacing:0px;word-spacing:0px;fill:#183355;fill-opacity:1;stroke:none;stroke-width:0.26458332"
           d="m 39.459245,225.62711 c -0.402167,0.80434 -1.524,1.80975 -1.957917,1.80975 -0.04233,0 -0.05292,-0.0212 -0.05292,-0.0635 0,-0.51858 1.132416,-1.32291 1.132416,-1.76741 0,-0.16934 -0.116416,-0.29634 -0.3175,-0.41275 -0.232833,0.28575 -0.497416,0.46566 -0.751416,0.46566 -0.03175,0 -0.05292,0 -0.08467,-0.0106 0.116417,-0.23283 0.15875,-0.39158 0.15875,-0.51858 0,-0.13759 -0.09525,-0.29634 -0.275167,-0.29634 -0.179916,0 -0.328083,0.24342 -0.328083,0.47625 0,0.381 0.254,0.52917 0.529167,0.52917 0.05292,0 0.09525,-0.0106 0.137583,-0.0212 -0.306917,0.35984 -0.656167,0.9525 -0.656167,1.31234 0,0.30691 0.1905,0.48683 0.465667,0.48683 0.613833,0 1.68275,-1.03717 2.074333,-1.79917 0.03175,-0.0847 0,-0.16933 -0.07408,-0.1905 z m -2.148417,-0.61383 c 0.0635,0 0.08467,0.0635 0.08467,0.11642 0,0.0847 -0.04233,0.254 -0.127,0.45508 -0.07408,-0.0529 -0.116417,-0.13758 -0.116417,-0.27517 0,-0.15875 0.08467,-0.29633 0.15875,-0.29633 z" />
        <path
           inkscape:connector-curvature="0"
           id="path5550"
           style="font-style:normal;font-variant:normal;font-weight:normal;font-stretch:normal;font-size:medium;line-height:1.25;font-family:'Christmas Wish';-inkscape-font-specification:'Christmas Wish';letter-spacing:0px;word-spacing:0px;fill:#183355;fill-opacity:1;stroke:none;stroke-width:0.26458332"
           d="m 41.894238,225.60595 c -0.179916,0.26458 -0.455083,0.53975 -0.9525,0.59266 0.0635,-0.20108 0.09525,-0.42333 0.09525,-0.635 0,-0.59266 -0.3175,-1.06891 -0.804333,-1.06891 -0.370417,0 -0.66675,0.28575 -0.66675,0.73025 0,0.0635 0,0.127 0.01058,0.1905 -0.328083,0.26458 -0.582083,0.6985 -0.582083,1.143 0,0.62441 0.370417,0.93133 0.772583,0.93133 0.423334,0 0.889,-0.47625 1.121834,-1.10067 0.53975,-0.0423 0.836083,-0.33866 1.037166,-0.5715 0.0635,-0.0847 0.04233,-0.15875 -0.03175,-0.21166 z m -2.148416,-0.381 c 0,-0.34925 0.211666,-0.55034 0.486833,-0.55034 0.391583,0 0.635,0.39159 0.635,0.889 0,0.22225 -0.03175,0.4445 -0.09525,0.64559 h -0.02117 c -0.306916,0 -0.60325,-0.13759 -0.79375,-0.37042 0.1905,-0.26458 0.423334,-0.49742 0.66675,-0.64558 -0.232833,-0.16934 -0.5715,-0.10584 -0.878416,0.0952 z m 0.105833,2.05316 c -0.148167,0 -0.243417,-0.14816 -0.243417,-0.42333 0,-0.28575 0.09525,-0.58208 0.254,-0.84667 0.211667,0.23284 0.518584,0.37042 0.846667,0.381 -0.201083,0.51859 -0.550333,0.889 -0.85725,0.889 z" />
        <path
           inkscape:connector-curvature="0"
           id="path5552"
           style="font-style:normal;font-variant:normal;font-weight:normal;font-stretch:normal;font-size:medium;line-height:1.25;font-family:'Christmas Wish';-inkscape-font-specification:'Christmas Wish';letter-spacing:0px;word-spacing:0px;fill:#183355;fill-opacity:1;stroke:none;stroke-width:0.26458332"
           d="m 46.619862,221.71128 c 0,0.47625 -0.751417,1.56633 -2.106083,1.75683 0,-1.00541 -0.709084,-1.49225 -1.386417,-1.49225 -0.560917,0 -0.814917,0.32809 -0.79375,0.6985 0.01058,0.46567 0.60325,0.97367 1.651,1.00542 -0.243417,1.04775 -1.132417,2.26483 -1.30175,3.05858 -0.211667,0.26459 -0.47625,0.51859 -0.60325,0.51859 -0.08467,0 -0.127,-0.0635 -0.127,-0.20109 0,-0.6985 0.66675,-1.79916 1.30175,-2.00025 -0.910167,-0.23283 -1.915583,0.70909 -1.915583,1.778 0,0.381 0.243416,0.65617 0.5715,0.65617 0.254,0 0.486833,-0.20108 0.751416,-0.46567 0.01058,0.41275 0.201084,0.59267 0.402167,0.59267 0.47625,0 1.143,-0.6985 1.629833,-1.778 0.05292,-0.11642 0.01058,-0.20108 -0.09525,-0.20108 -0.41275,0.98425 -1.04775,1.73566 -1.36525,1.73566 -0.05292,0 -0.09525,-0.0212 -0.09525,-0.11641 0,-0.68792 1.23825,-2.33892 1.36525,-3.58775 2.010834,-0.15875 2.63525,-1.42875 2.116667,-1.95792 z m -4.116917,0.9525 c -0.01058,-0.27517 0.1905,-0.508 0.53975,-0.508 0.508,0 1.005417,0.45508 1.005417,1.016 0,0.10583 -0.01058,0.21167 -0.03175,0.32808 -0.931333,-0.0212 -1.49225,-0.46566 -1.513417,-0.83608 z" />
        <path
           inkscape:connector-curvature="0"
           id="path5554"
           style="font-style:normal;font-variant:normal;font-weight:normal;font-stretch:normal;font-size:medium;line-height:1.25;font-family:'Christmas Wish';-inkscape-font-specification:'Christmas Wish';letter-spacing:0px;word-spacing:0px;fill:#183355;fill-opacity:1;stroke:none;stroke-width:0.26458332"
           d="m 46.892548,225.62711 c -0.41275,0.96309 -1.04775,1.49225 -1.407584,1.49225 -0.254,0 -0.433916,-0.14816 -0.6985,-0.14816 -0.137583,0 -0.28575,0.0529 -0.391583,0.16933 0.116417,-0.46567 1.979083,-1.41817 1.979083,-1.80975 0,-0.0529 -0.02117,-0.10583 -0.08467,-0.13758 -0.179917,0.0952 -0.529167,0.127 -0.751417,0.127 -0.433917,0 -0.814917,-0.127 -0.889,-0.34925 -0.137583,0.16933 -0.169333,0.30691 -0.169333,0.42333 0.03175,0.39158 0.306916,0.51858 0.6985,0.51858 0.148166,0 0.328083,-0.0423 0.497416,-0.10583 -0.5715,0.43392 -1.471083,0.92075 -1.471083,1.40758 0,0.127 0.02117,0.254 0.07408,0.3175 0.105834,-0.0423 0.169334,-0.0529 0.296334,-0.0529 0.169333,0 0.455083,0.13758 0.73025,0.13758 0.66675,0 1.322916,-1.10067 1.68275,-1.83092 0.03175,-0.0847 -0.04233,-0.13758 -0.09525,-0.15875 z" />
        <path
           inkscape:connector-curvature="0"
           id="path5556"
           style="font-style:normal;font-variant:normal;font-weight:normal;font-stretch:normal;font-size:medium;line-height:1.25;font-family:'Christmas Wish';-inkscape-font-specification:'Christmas Wish';letter-spacing:0px;word-spacing:0px;fill:#183355;fill-opacity:1;stroke:none;stroke-width:0.26458332"
           d="m 48.816565,225.60595 c -0.53975,0.98425 -1.217084,1.68275 -1.693334,1.68275 -0.127,0 -0.179916,-0.10584 -0.179916,-0.24342 0,-0.23283 0.09525,-0.53975 0.243416,-0.83608 0.529167,0.0423 1.04775,-0.508 1.04775,-0.81492 0,-0.20108 -0.127,-0.3175 -0.338666,-0.3175 -0.79375,0 -1.513417,0.86783 -1.513417,1.67217 0,0.4445 0.211667,0.74083 0.656167,0.74083 0.550333,0 1.227666,-0.64558 1.862666,-1.66158 0.0635,-0.10584 0,-0.1905 -0.08467,-0.22225 z m -0.846667,-0.29634 c 0.0635,0 0.08467,0.0212 0.08467,0.0847 0,0.17992 -0.359834,0.62442 -0.783167,0.64558 0.22225,-0.39158 0.508,-0.73025 0.6985,-0.73025 z" />
        <path
           inkscape:connector-curvature="0"
           id="path5558"
           style="font-style:normal;font-variant:normal;font-weight:normal;font-stretch:normal;font-size:medium;line-height:1.25;font-family:'Christmas Wish';-inkscape-font-specification:'Christmas Wish';letter-spacing:0px;word-spacing:0px;fill:#183355;fill-opacity:1;stroke:none;stroke-width:0.26458332"
           d="m 51.787175,225.60595 c -0.47625,0.92075 -1.30175,1.79916 -1.598084,1.79916 -0.05292,0 -0.07408,-0.0423 -0.07408,-0.11641 0,-0.47625 0.6985,-1.23825 0.6985,-1.7145 0,-0.32809 -0.254,-0.56092 -0.550333,-0.56092 -0.275167,0 -0.592667,0.22225 -0.899584,0.5715 0,-0.27517 -0.381,-0.48683 -0.740833,-0.37042 0.105833,0.34925 -0.402167,1.016 -0.402167,1.87325 0,0.29634 0.148167,0.45509 0.306917,0.45509 0.391583,-1.397 1.36525,-2.36009 1.61925,-2.36009 0.05292,0 0.09525,0.0106 0.09525,0.0847 0,0.1905 -0.677333,1.16417 -0.677333,1.76742 0,0.381 0.232833,0.58208 0.508,0.58208 0.53975,0 1.386416,-1.06892 1.80975,-1.778 0.07408,-0.127 -0.02117,-0.23283 -0.09525,-0.23283 z" />
        <path
           inkscape:connector-curvature="0"
           id="path5560"
           style="font-style:normal;font-variant:normal;font-weight:normal;font-stretch:normal;font-size:medium;line-height:1.25;font-family:'Christmas Wish';-inkscape-font-specification:'Christmas Wish';letter-spacing:0px;word-spacing:0px;fill:#183355;fill-opacity:1;stroke:none;stroke-width:0.26458332"
           d="m 52.160732,224.73811 c 0.3175,0 0.497417,-0.34925 0.497417,-0.64558 -0.15875,0.0106 -0.328084,-0.0317 -0.465667,-0.0317 -0.169333,0 -0.370417,0.0952 -0.370417,0.34925 0,0.20108 0.137584,0.32808 0.338667,0.32808 z m -0.529167,2.87867 c 0.560917,0 1.407584,-1.2065 1.703917,-1.78858 0.04233,-0.0741 -0.01058,-0.15875 -0.0635,-0.17992 -0.433917,0.78317 -1.164167,1.66158 -1.418167,1.66158 -0.05292,0 -0.08467,-0.0317 -0.08467,-0.0847 0,-0.35984 0.624416,-1.2065 0.624416,-1.64042 0,-0.27517 -0.328083,-0.45508 -0.635,-0.45508 0,0.45508 -0.518583,1.16416 -0.518583,1.91558 0,0.35983 0.148167,0.5715 0.391583,0.5715 z" />
        <path
           inkscape:connector-curvature="0"
           id="path5562"
           style="font-style:normal;font-variant:normal;font-weight:normal;font-stretch:normal;font-size:medium;line-height:1.25;font-family:'Christmas Wish';-inkscape-font-specification:'Christmas Wish';letter-spacing:0px;word-spacing:0px;fill:#183355;fill-opacity:1;stroke:none;stroke-width:0.26458332"
           d="m 55.902768,225.69061 c -0.381,0.9525 -1.0795,1.7145 -1.36525,1.7145 -0.03175,0 -0.0635,-0.0318 -0.0635,-0.0847 0,-0.254 0.455084,-0.84667 0.455084,-1.30175 0,-0.30692 -0.34925,-0.4445 -0.592667,-0.48684 0.07408,0.508 -0.645583,1.64042 -0.994833,1.64042 -0.03175,0 -0.08467,-0.0212 -0.08467,-0.127 0,-0.39158 0.5715,-1.94733 1.598083,-1.82033 -0.783166,-0.66675 -2.233083,0.62441 -2.233083,1.70391 0,0.37042 0.296333,0.56092 0.518583,0.56092 0.338667,0 0.66675,-0.34925 0.92075,-0.74083 -0.02117,0.11641 -0.04233,0.23283 -0.04233,0.3175 0,0.37041 0.1905,0.55033 0.433917,0.55033 0.402166,0 1.11125,-0.75142 1.545166,-1.76742 0.04233,-0.0847 -0.01058,-0.15875 -0.09525,-0.15875 z" />
      </g>
      <g
         transform="matrix(1.2830827,-0.343801,0.343801,1.2830827,-81.527004,-24.091716)"
         id="g5734">
        <path
           inkscape:connector-curvature="0"
           id="path5449"
           style="font-style:normal;font-variant:normal;font-weight:normal;font-stretch:normal;font-size:medium;line-height:1.25;font-family:'Christmas Wish';-inkscape-font-specification:'Christmas Wish';letter-spacing:0px;word-spacing:0px;fill:#183355;fill-opacity:1;stroke:none;stroke-width:0.26458332"
           d="m 33.751191,175.10968 c 0.66675,0.0741 1.42875,0.68792 1.42875,1.97908 0,2.52942 -1.8415,5.61975 -2.709333,5.61975 -1.100667,0 0.338666,-3.10091 0.338666,-4.064 0,-0.34925 -0.381,-0.53975 -0.560916,-0.53975 -0.34925,1.82034 -1.799167,4.46617 -2.561167,4.46617 -0.296333,0 -0.497417,-0.43392 -0.497417,-1.27 0,-1.12183 0.402167,-2.46592 0.98425,-3.556 h 0.105834 c 1.640416,0 2.772833,-0.97367 2.772833,-1.67217 0,-0.34925 -0.232833,-0.58208 -0.613833,-0.58208 -1.2065,0 -2.233084,0.86783 -2.942167,2.00025 -1.386417,-0.27517 -2.233083,-1.25942 -2.233083,-2.159 0,-0.55033 0.127,-0.92075 0.60325,-1.37583 -0.592667,-0.0741 -1.026584,0.49741 -1.026584,1.19591 0,0.99484 1.005417,2.16959 2.561167,2.49767 -0.60325,1.016 -0.9525,2.2225 -0.9525,3.18558 0,1.23825 0.433917,1.905 1.23825,1.905 0.635,0 1.397,-1.12183 2.00025,-2.43416 -0.105833,0.42333 -0.179917,0.85725 -0.1905,1.24883 -0.01058,0.65617 0.232833,1.3335 0.973667,1.3335 1.058333,0 3.005666,-3.03742 3.005666,-6.01133 0,-1.29117 -0.6985,-2.05317 -1.725083,-1.76742 z m -1.312333,0.56092 c 0.28575,0 0.433916,0.14816 0.433916,0.40216 0,0.49742 -0.814916,1.49225 -2.592916,1.49225 h -0.01058 c 0.624417,-1.09008 1.418167,-1.89441 2.169584,-1.89441 z" />
        <path
           inkscape:connector-curvature="0"
           id="path5451"
           style="font-style:normal;font-variant:normal;font-weight:normal;font-stretch:normal;font-size:medium;line-height:1.25;font-family:'Christmas Wish';-inkscape-font-specification:'Christmas Wish';letter-spacing:0px;word-spacing:0px;fill:#183355;fill-opacity:1;stroke:none;stroke-width:0.26458332"
           d="m 37.7082,180.39076 c -0.53975,0.98425 -1.217083,1.68275 -1.693333,1.68275 -0.127,0 -0.179917,-0.10583 -0.179917,-0.24341 0,-0.23284 0.09525,-0.53975 0.243417,-0.83609 0.529166,0.0423 1.04775,-0.508 1.04775,-0.81491 0,-0.20109 -0.127,-0.3175 -0.338667,-0.3175 -0.79375,0 -1.513417,0.86783 -1.513417,1.67216 0,0.4445 0.211667,0.74084 0.656167,0.74084 0.550333,0 1.227667,-0.64559 1.862667,-1.66159 0.0635,-0.10583 0,-0.1905 -0.08467,-0.22225 z m -0.846667,-0.29633 c 0.0635,0 0.08467,0.0212 0.08467,0.0847 0,0.17991 -0.359833,0.62441 -0.783167,0.64558 0.22225,-0.39158 0.508,-0.73025 0.6985,-0.73025 z" />
        <path
           inkscape:connector-curvature="0"
           id="path5453"
           style="font-style:normal;font-variant:normal;font-weight:normal;font-stretch:normal;font-size:medium;line-height:1.25;font-family:'Christmas Wish';-inkscape-font-specification:'Christmas Wish';letter-spacing:0px;word-spacing:0px;fill:#183355;fill-opacity:1;stroke:none;stroke-width:0.26458332"
           d="m 39.705142,180.39076 c -0.232833,0.34925 -0.677333,0.53975 -1.153583,0.70909 -0.169333,-0.26459 -0.4445,-0.46567 -0.645583,-0.67734 0.116416,-0.20108 0.201083,-0.37041 0.201083,-0.56091 0,-0.20109 -0.127,-0.32809 -0.306917,-0.32809 -0.201083,0 -0.370416,0.20109 -0.370416,0.52917 0,0.65617 0.423333,0.78317 0.529166,1.24883 -0.41275,0.16934 -0.719666,0.41275 -0.719666,0.77259 0,0.254 0.179916,0.46566 0.518583,0.46566 0.455083,0 0.9525,-0.39158 0.9525,-0.97366 0,-0.11642 -0.02117,-0.22225 -0.0635,-0.32809 0.423333,-0.14816 0.836083,-0.33866 1.11125,-0.67733 0.04233,-0.0635 0.03175,-0.14817 -0.05292,-0.17992 z m -1.905,-0.67733 c 0.0635,0 0.127,0.0423 0.127,0.14817 0,0.13758 -0.05292,0.27516 -0.148166,0.42333 -0.08467,-0.10583 -0.137584,-0.22225 -0.137584,-0.34925 0,-0.13758 0.08467,-0.22225 0.15875,-0.22225 z m -0.15875,2.6035 c -0.148166,0 -0.22225,-0.0953 -0.22225,-0.23283 0,-0.24342 0.22225,-0.45509 0.560917,-0.60325 v 0.0423 c 0,0.49742 -0.179917,0.79375 -0.338667,0.79375 z" />
        <path
           inkscape:connector-curvature="0"
           id="path5455"
           style="font-style:normal;font-variant:normal;font-weight:normal;font-stretch:normal;font-size:medium;line-height:1.25;font-family:'Christmas Wish';-inkscape-font-specification:'Christmas Wish';letter-spacing:0px;word-spacing:0px;fill:#183355;fill-opacity:1;stroke:none;stroke-width:0.26458332"
           d="m 42.134017,180.39076 c -0.179916,0.26459 -0.455083,0.53975 -0.9525,0.59267 0.0635,-0.20108 0.09525,-0.42333 0.09525,-0.635 0,-0.59267 -0.3175,-1.06892 -0.804333,-1.06892 -0.370417,0 -0.66675,0.28575 -0.66675,0.73025 0,0.0635 0,0.127 0.01058,0.1905 -0.328083,0.26459 -0.582083,0.6985 -0.582083,1.143 0,0.62442 0.370417,0.93134 0.772583,0.93134 0.423334,0 0.889,-0.47625 1.121834,-1.10067 0.53975,-0.0423 0.836083,-0.33867 1.037166,-0.5715 0.0635,-0.0847 0.04233,-0.15875 -0.03175,-0.21167 z m -2.148416,-0.381 c 0,-0.34925 0.211666,-0.55033 0.486833,-0.55033 0.391583,0 0.635,0.39158 0.635,0.889 0,0.22225 -0.03175,0.4445 -0.09525,0.64558 h -0.02117 c -0.306916,0 -0.60325,-0.13758 -0.79375,-0.37041 0.1905,-0.26459 0.423334,-0.49742 0.66675,-0.64559 -0.232833,-0.16933 -0.5715,-0.10583 -0.878416,0.0952 z m 0.105833,2.05317 c -0.148167,0 -0.243417,-0.14817 -0.243417,-0.42333 0,-0.28575 0.09525,-0.58209 0.254,-0.84667 0.211667,0.23283 0.518584,0.37042 0.846667,0.381 -0.201083,0.51858 -0.550333,0.889 -0.85725,0.889 z" />
        <path
           inkscape:connector-curvature="0"
           id="path5457"
           style="font-style:normal;font-variant:normal;font-weight:normal;font-stretch:normal;font-size:medium;line-height:1.25;font-family:'Christmas Wish';-inkscape-font-specification:'Christmas Wish';letter-spacing:0px;word-spacing:0px;fill:#183355;fill-opacity:1;stroke:none;stroke-width:0.26458332"
           d="m 44.055058,180.41193 c -0.518584,0.97367 -1.217084,1.778 -1.545167,1.778 -0.15875,0 -0.232833,-0.127 -0.232833,-0.47625 0,-0.37042 0.08467,-0.81492 0.22225,-1.29117 0.98425,-0.78316 2.307166,-2.19075 2.307166,-2.97391 0,-0.27517 -0.1905,-0.42334 -0.433916,-0.42334 -1.037167,0 -2.656417,2.70934 -2.656417,4.40267 0,0.74083 0.359833,0.97367 0.677333,0.97367 0.465667,0 1.11125,-0.70909 1.735667,-1.79917 0.05292,-0.0952 0,-0.16933 -0.07408,-0.1905 z m 0.3175,-3.20675 c 0.137583,0 0.254,0.0529 0.254,0.24342 0,0.61383 -1.037167,1.86266 -2.042584,2.68816 0.465667,-1.42875 1.3335,-2.93158 1.788584,-2.93158 z" />
        <path
           inkscape:connector-curvature="0"
           id="path5459"
           style="font-style:normal;font-variant:normal;font-weight:normal;font-stretch:normal;font-size:medium;line-height:1.25;font-family:'Christmas Wish';-inkscape-font-specification:'Christmas Wish';letter-spacing:0px;word-spacing:0px;fill:#183355;fill-opacity:1;stroke:none;stroke-width:0.26458332"
           d="m 48.040179,183.71393 c -0.867833,0 -2.00025,-0.40217 -2.963333,-0.64558 0.677333,-0.93134 1.195917,-2.05317 1.195917,-2.64584 0,-0.42333 -0.391584,-0.51858 -0.592667,-0.53975 -0.41275,1.524 -1.058333,2.21192 -1.481667,2.21192 -0.09525,0 -0.137583,-0.0741 -0.137583,-0.17992 0,-0.40216 0.645583,-1.17475 0.645583,-1.651 0,-0.3175 -0.34925,-0.46566 -0.5715,-0.48683 -0.04233,0.32808 -0.613833,1.35467 -0.613833,1.80975 0,0.41275 0.211667,0.68792 0.656167,0.68792 0.34925,0 0.709083,-0.3175 1.005416,-0.74084 -0.201083,0.508 -0.423333,0.99484 -0.656166,1.41817 -0.211667,-0.0423 -0.41275,-0.0635 -0.582084,-0.0635 -1.016,0 -1.534583,0.60325 -1.534583,1.10067 0,0.32808 0.201083,0.61383 0.635,0.61383 0.60325,0 1.312333,-0.60325 1.915583,-1.37583 1.016,0.29633 2.0955,0.889 2.921,0.889 0.9525,0 1.30175,-0.37042 1.386417,-0.9525 -0.3175,0.32808 -0.6985,0.55033 -1.227667,0.55033 z m -4.995333,0.70908 c -0.306917,0 -0.455083,-0.1905 -0.455083,-0.43391 0,-0.39159 0.4445,-0.93134 1.354666,-0.93134 0.15875,0 0.328084,0.0212 0.486834,0.0423 -0.465667,0.79375 -0.963084,1.32291 -1.386417,1.32291 z" />
        <path
           inkscape:connector-curvature="0"
           id="path5461"
           style="font-style:normal;font-variant:normal;font-weight:normal;font-stretch:normal;font-size:medium;line-height:1.25;font-family:'Christmas Wish';-inkscape-font-specification:'Christmas Wish';letter-spacing:0px;word-spacing:0px;fill:#183355;fill-opacity:1;stroke:none;stroke-width:0.26458332"
           d="m 47.059567,182.2746 c 0.772583,0 1.74625,-1.32292 1.905,-1.66159 0.04233,-0.0741 -0.01058,-0.17991 -0.08467,-0.1905 -0.254,0.51859 -1.17475,1.651 -1.725083,1.651 -0.127,0 -0.22225,-0.0741 -0.22225,-0.26458 0,-0.73025 0.677333,-1.778 0.994833,-1.778 0.08467,0 0.137583,0.0423 0.137583,0.15875 0,0.17992 -0.05292,0.34925 -0.169333,0.55033 0.275167,-0.20108 0.34925,-0.42333 0.34925,-0.58208 -0.01058,-0.1905 -0.201083,-0.3175 -0.423333,-0.3175 -0.751417,0 -1.471084,0.9525 -1.471084,1.61925 0,0.58208 0.328084,0.81492 0.709084,0.81492 z" />
        <path
           inkscape:connector-curvature="0"
           id="path5463"
           style="font-style:normal;font-variant:normal;font-weight:normal;font-stretch:normal;font-size:medium;line-height:1.25;font-family:'Christmas Wish';-inkscape-font-specification:'Christmas Wish';letter-spacing:0px;word-spacing:0px;fill:#183355;fill-opacity:1;stroke:none;stroke-width:0.26458332"
           d="m 51.713918,180.41193 c -0.34925,0.83608 -1.143,1.778 -1.397,1.778 -0.05292,0 -0.08467,-0.0529 -0.08467,-0.127 0,-0.381 0.687916,-1.27 0.687916,-1.7145 0,-0.30692 -0.243416,-0.60325 -0.60325,-0.60325 -0.328083,0 -0.719666,0.43392 -1.090083,0.99483 0.0635,-0.3175 0.137583,-0.62441 0.243417,-0.93133 0.931333,-0.64558 1.957916,-1.67217 1.957916,-2.37067 0,-0.24341 -0.169333,-0.381 -0.402166,-0.381 -1.27,0 -2.561167,2.667 -2.561167,4.72017 0,0.32808 0.127,0.508 0.275167,0.508 0.359833,-1.19592 1.17475,-2.286 1.386416,-2.286 0.0635,0 0.105834,0.0423 0.105834,0.127 0,0.43392 -0.560917,1.06892 -0.560917,1.69333 0,0.3175 0.201083,0.58209 0.518583,0.58209 0.550334,0 1.217084,-1.02659 1.598084,-1.78859 0.0635,-0.127 0.02117,-0.17991 -0.07408,-0.20108 z m -0.687916,-3.175 c 0.148166,0 0.22225,0.0635 0.22225,0.20108 0,0.5715 -0.8255,1.44992 -1.693334,2.08492 0.433917,-1.23825 1.058334,-2.286 1.471084,-2.286 z" />
        <path
           style="opacity:0.97000002;fill:#183355;fill-opacity:1;stroke:none;stroke-width:0.26458332px;stroke-linecap:butt;stroke-linejoin:miter;stroke-opacity:1"
           d="m 41.599857,178.82556 c -0.04699,0.44976 0.407442,0.89584 1.39227,2.17485 l -0.153232,0.11994 c -0.663259,-0.99781 -1.372355,-1.5053 -1.641998,-1.96295 z"
           id="path5608"
           inkscape:connector-curvature="0"
           sodipodi:nodetypes="ccccc" />
      </g>
      <g
         transform="matrix(1.2830827,-0.343801,0.343801,1.2830827,-50.091394,-50.682695)"
         id="g5743">
        <path
           inkscape:connector-curvature="0"
           id="path5465"
           style="font-style:normal;font-variant:normal;font-weight:normal;font-stretch:normal;font-size:medium;line-height:1.25;font-family:'Christmas Wish';-inkscape-font-specification:'Christmas Wish';letter-spacing:0px;word-spacing:0px;fill:#183355;fill-opacity:1;stroke:none;stroke-width:0.26458332"
           d="m 35.666774,189.17143 c 0,-0.62441 -0.518583,-1.02658 -1.312333,-1.02658 -1.058333,0 -2.328333,0.635 -2.328333,2.13783 0,0.28575 0.07408,0.58209 0.169333,0.89959 -0.264583,0.0318 -0.53975,0.0529 -0.8255,0.0529 -2.69875,0 -3.947583,-1.10066 -3.947583,-2.286 0,-0.59266 0.423333,-0.9525 1.11125,-0.9525 0.92075,0 1.693333,0.55034 2.116666,1.17475 -0.211666,-0.62441 -1.132416,-1.35466 -2.116666,-1.35466 -0.9525,0 -1.693334,0.47625 -1.693334,1.29116 0,1.2065 1.513417,2.29659 4.529667,2.29659 0.306917,0 0.60325,-0.0212 0.878417,-0.0529 0.306916,0.85725 0.79375,1.80975 0.79375,2.71992 0,1.18533 -0.994834,2.2225 -2.942167,2.2225 -1.143,0 -2.804583,-0.67734 -2.804583,-2.032 0,-0.92075 0.751416,-1.56634 1.7145,-1.56634 1.121833,0 1.905,0.48684 2.54,1.21709 0.169333,-0.87842 -0.814917,-1.56634 -2.25425,-1.56634 -1.132417,0 -2.25425,0.6985 -2.25425,1.85209 0,1.5875 1.820333,2.27541 3.058583,2.27541 2.518833,0 3.767667,-1.30175 3.767667,-2.88925 0,-0.78316 -0.4445,-1.61925 -0.804334,-2.38125 1.534584,-0.381 2.6035,-1.23825 2.6035,-2.032 z m -2.677583,1.87325 c -0.211667,-0.46566 -0.381,-0.89958 -0.381,-1.29116 0,-0.99484 0.910167,-1.42875 1.74625,-1.42875 0.687917,0 1.132417,0.32808 1.132417,0.84666 0,0.71967 -1.016,1.524 -2.497667,1.87325 z" />
        <path
           inkscape:connector-curvature="0"
           id="path5467"
           style="font-style:normal;font-variant:normal;font-weight:normal;font-stretch:normal;font-size:medium;line-height:1.25;font-family:'Christmas Wish';-inkscape-font-specification:'Christmas Wish';letter-spacing:0px;word-spacing:0px;fill:#183355;fill-opacity:1;stroke:none;stroke-width:0.26458332"
           d="m 38.994571,193.78577 c -0.201083,0.34925 -0.529167,0.6985 -0.931333,0.6985 -0.04233,0 -0.08467,0 -0.127,-0.0106 0.15875,-0.29633 0.254,-0.60325 0.254,-0.84666 0,-0.28575 -0.1905,-0.48684 -0.423334,-0.48684 -0.359833,0 -0.518583,0.35984 -0.518583,0.70909 0,0.30691 0.15875,0.59266 0.433917,0.73025 -0.275167,0.46566 -0.66675,0.87841 -0.9525,0.87841 -0.0635,0 -0.127,-0.0529 -0.127,-0.1905 0,-0.46566 0.47625,-1.03716 0.47625,-1.40758 0,-0.32808 -0.381,-0.51858 -0.635,-0.508 0,0.68792 -0.656167,2.10608 -1.195917,2.10608 -0.0635,0 -0.127,-0.0529 -0.127,-0.1905 0,-0.46566 0.486833,-1.03716 0.486833,-1.40758 0,-0.32808 -0.381,-0.508 -0.560916,-0.508 0,0.33867 -0.455084,1.05833 -0.455084,1.48167 0,0.52916 0.275167,0.80433 0.645584,0.80433 0.296333,0 0.592666,-0.26458 0.836083,-0.62442 0.0635,0.41275 0.3175,0.62442 0.635,0.62442 0.359833,0 0.8255,-0.46567 1.143,-0.99483 0.0635,0.0106 0.137583,0.0212 0.211667,0.0212 0.455083,0 0.79375,-0.34925 1.026583,-0.73025 0.03175,-0.0635 -0.01058,-0.13758 -0.09525,-0.14816 z m -1.566333,0.0635 c 0,-0.254 0.09525,-0.53975 0.338666,-0.53975 0.116417,0 0.243417,0.11641 0.243417,0.3175 0,0.22225 -0.09525,0.508 -0.243417,0.78316 -0.201083,-0.10583 -0.338666,-0.32808 -0.338666,-0.56091 z" />
        <path
           inkscape:connector-curvature="0"
           id="path5469"
           style="font-style:normal;font-variant:normal;font-weight:normal;font-stretch:normal;font-size:medium;line-height:1.25;font-family:'Christmas Wish';-inkscape-font-specification:'Christmas Wish';letter-spacing:0px;word-spacing:0px;fill:#183355;fill-opacity:1;stroke:none;stroke-width:0.26458332"
           d="m 39.398722,192.88618 c 0.3175,0 0.497416,-0.34925 0.497416,-0.64558 -0.15875,0.0106 -0.328083,-0.0317 -0.465666,-0.0317 -0.169334,0 -0.370417,0.0952 -0.370417,0.34925 0,0.20108 0.137583,0.32808 0.338667,0.32808 z m -0.529167,2.87867 c 0.560917,0 1.407583,-1.2065 1.703917,-1.78858 0.04233,-0.0741 -0.01058,-0.15875 -0.0635,-0.17992 -0.433917,0.78317 -1.164167,1.66158 -1.418167,1.66158 -0.05292,0 -0.08467,-0.0318 -0.08467,-0.0847 0,-0.35984 0.624417,-1.2065 0.624417,-1.64042 0,-0.27517 -0.328083,-0.45508 -0.635,-0.45508 0,0.45508 -0.518583,1.16416 -0.518583,1.91558 0,0.35983 0.148166,0.5715 0.391583,0.5715 z" />
        <path
           inkscape:connector-curvature="0"
           id="path5471"
           style="font-style:normal;font-variant:normal;font-weight:normal;font-stretch:normal;font-size:medium;line-height:1.25;font-family:'Christmas Wish';-inkscape-font-specification:'Christmas Wish';letter-spacing:0px;word-spacing:0px;fill:#183355;fill-opacity:1;stroke:none;stroke-width:0.26458332"
           d="m 43.140757,193.83868 c -0.381,0.9525 -1.0795,1.7145 -1.36525,1.7145 -0.03175,0 -0.0635,-0.0317 -0.0635,-0.0847 0,-0.254 0.455083,-0.84667 0.455083,-1.30175 0,-0.30692 -0.349249,-0.4445 -0.592666,-0.48684 0.07408,0.508 -0.645583,1.64042 -0.994833,1.64042 -0.03175,0 -0.08467,-0.0212 -0.08467,-0.127 0,-0.39158 0.5715,-1.94733 1.598083,-1.82033 -0.783166,-0.66675 -2.233083,0.62441 -2.233083,1.70391 0,0.37042 0.296333,0.56092 0.518583,0.56092 0.338667,0 0.66675,-0.34925 0.92075,-0.74083 -0.02117,0.11641 -0.04233,0.23283 -0.04233,0.3175 0,0.37041 0.1905,0.55033 0.433917,0.55033 0.402166,0 1.111249,-0.75142 1.545166,-1.76742 0.04233,-0.0847 -0.01058,-0.15875 -0.09525,-0.15875 z" />
        <path
           inkscape:connector-curvature="0"
           id="path5473"
           style="font-style:normal;font-variant:normal;font-weight:normal;font-stretch:normal;font-size:medium;line-height:1.25;font-family:'Christmas Wish';-inkscape-font-specification:'Christmas Wish';letter-spacing:0px;word-spacing:0px;fill:#183355;fill-opacity:1;stroke:none;stroke-width:0.26458332"
           d="m 46.855011,191.33043 c -0.6985,0 -1.471083,0.15875 -2.12725,0.27517 0.0635,-0.16933 0.09525,-0.3175 0.09525,-0.43392 0,-0.42333 -0.211667,-0.61383 -0.53975,-0.56091 0,0.28575 -0.127,0.67733 -0.3175,1.12183 -0.09525,0.0106 -0.179917,0.0106 -0.254,0.0106 -0.92075,0 -1.481667,-0.26458 -1.481667,-0.78316 0,-0.27517 0.127,-0.48684 0.306917,-0.6985 -0.306917,0.0635 -0.709083,0.381 -0.709083,0.93133 0,0.52917 0.592666,0.84667 1.576916,0.84667 0.137584,0 0.28575,-0.0106 0.4445,-0.0318 -0.497416,1.09008 -1.23825,2.39183 -1.23825,3.06916 0,0.51859 0.296334,0.68792 0.550334,0.68792 0.592666,0 1.471083,-1.28058 1.7145,-1.76742 0.04233,-0.0847 -0.02117,-0.14816 -0.08467,-0.17991 -0.254,0.48683 -1.100667,1.76741 -1.566333,1.76741 -0.07408,0 -0.116417,-0.0529 -0.116417,-0.14816 0,-0.83609 1.0795,-2.50825 1.524,-3.57717 0.6985,-0.14817 1.481667,-0.34925 2.2225,-0.34925 0.391583,0 0.889,0.0741 1.153583,0.35983 -0.09525,-0.30691 -0.529166,-0.53975 -1.153583,-0.53975 z" />
        <path
           style="fill:#183355;fill-opacity:1;stroke:none;stroke-width:0.26458332px;stroke-linecap:butt;stroke-linejoin:miter;stroke-opacity:1"
           d="m 35.127268,187.99117 0.269415,0.13471 0.493807,-1.06084 -0.422297,-0.29233 c 0.02605,0.28411 -0.07727,0.88866 -0.340925,1.21847 z"
           id="path5610"
           inkscape:connector-curvature="0"
           sodipodi:nodetypes="cccccc" />
        <path
           style="fill:#183355;fill-opacity:1;stroke:none;stroke-width:0.26458332px;stroke-linecap:butt;stroke-linejoin:miter;stroke-opacity:1"
           d="m 42.106552,196.13516 c -0.883071,0.26156 -0.69381,-0.47371 -0.508651,-0.57806 l -0.162618,-0.006 c -0.323328,0.31606 -0.136732,1.14354 0.768756,0.87701 z"
           id="path5612"
           inkscape:connector-curvature="0"
           sodipodi:nodetypes="ccccc" />
      </g>
      <g
         transform="matrix(1.2830827,-0.343801,0.343801,1.2830827,-93.386638,-46.562652)"
         id="g5665">
        <path
           inkscape:connector-curvature="0"
           id="path5532"
           style="font-style:normal;font-variant:normal;font-weight:normal;font-stretch:normal;font-size:medium;line-height:1.25;font-family:'Christmas Wish';-inkscape-font-specification:'Christmas Wish';letter-spacing:0px;word-spacing:0px;fill:#183355;fill-opacity:1;stroke:none;stroke-width:0.26458332"
           d="M 33.033177,209.87203 H 32.88501 c 1.227667,-0.32809 1.926167,-0.99484 1.926167,-1.76742 0,-0.98425 -1.068917,-1.68275 -2.550583,-1.68275 -2.042584,0 -4.074583,1.31233 -4.074583,2.43417 0,0.56091 0.359833,0.94191 0.973666,0.94191 0.740834,0 1.756833,-0.32808 2.370667,-0.77258 -0.254,0.53975 -0.613834,1.30175 -0.931334,2.07433 -2.137833,0 -4.296833,1.4605 -4.296833,2.88925 0,1.04775 0.8255,1.66159 2.211917,1.66159 3.069166,0 6.498166,-2.14842 6.498166,-4.18042 0,-0.96308 -0.836083,-1.59808 -1.979083,-1.59808 z m -3.8735,-0.254 c -0.508,0 -0.804333,-0.30692 -0.804333,-0.762 0,-1.03717 1.905,-2.26484 3.90525,-2.26484 0.963083,0 1.852083,0.27517 1.852083,1.12184 0,0.89958 -0.910167,1.91558 -2.159,2.24366 0.4445,-0.80433 0.846667,-1.37583 0.846667,-1.61925 0,-0.30691 -0.296334,-0.49741 -0.582084,-0.53975 -0.529166,1.0795 -2.106083,1.82034 -3.058583,1.82034 z m -1.005416,5.66208 c -1.016,0 -1.61925,-0.49742 -1.61925,-1.35467 0,-1.29116 2.021416,-2.61408 4.000499,-2.64583 -0.338666,0.83608 -0.603249,1.67217 -0.603249,2.21192 0,0.26458 0.116416,0.42333 0.285749,0.45508 0.09525,-0.71967 0.592667,-1.72508 1.04775,-2.61408 0.5715,0.0952 1.058334,0.28575 1.524,0.51858 -0.370416,-0.26458 -0.85725,-0.52917 -1.439333,-0.66675 0.169333,-0.33867 0.328083,-0.64558 0.455083,-0.92075 l 0.3175,-0.11642 c 0.296334,-0.0741 0.60325,-0.0952 0.910167,-0.0952 0.899583,0 1.407583,0.41275 1.407583,1.04775 0,1.82034 -3.323166,4.18042 -6.286499,4.18042 z" />
        <path
           inkscape:connector-curvature="0"
           id="path5534"
           style="font-style:normal;font-variant:normal;font-weight:normal;font-stretch:normal;font-size:medium;line-height:1.25;font-family:'Christmas Wish';-inkscape-font-specification:'Christmas Wish';letter-spacing:0px;word-spacing:0px;fill:#183355;fill-opacity:1;stroke:none;stroke-width:0.26458332"
           d="m 38.276888,212.24269 c -0.179917,0.26459 -0.455084,0.53975 -0.9525,0.59267 0.0635,-0.20108 0.09525,-0.42333 0.09525,-0.635 0,-0.59267 -0.3175,-1.06892 -0.804334,-1.06892 -0.370416,0 -0.666749,0.28575 -0.666749,0.73025 0,0.0635 0,0.127 0.01058,0.1905 -0.328083,0.26459 -0.582083,0.6985 -0.582083,1.143 0,0.62442 0.370416,0.93134 0.772583,0.93134 0.423333,0 0.889,-0.47625 1.121833,-1.10067 0.53975,-0.0423 0.836083,-0.33867 1.037167,-0.5715 0.0635,-0.0847 0.04233,-0.15875 -0.03175,-0.21167 z m -2.148417,-0.381 c 0,-0.34925 0.211667,-0.55033 0.486833,-0.55033 0.391584,0 0.635,0.39158 0.635,0.889 0,0.22225 -0.03175,0.4445 -0.09525,0.64558 h -0.02117 c -0.306917,0 -0.60325,-0.13758 -0.79375,-0.37041 0.1905,-0.26459 0.423333,-0.49742 0.66675,-0.64559 -0.232834,-0.16933 -0.5715,-0.10583 -0.878417,0.0952 z m 0.105833,2.05317 c -0.148166,0 -0.243416,-0.14817 -0.243416,-0.42333 0,-0.28575 0.09525,-0.58209 0.254,-0.84667 0.211666,0.23283 0.518583,0.37042 0.846666,0.381 -0.201083,0.51858 -0.550333,0.889 -0.85725,0.889 z" />
        <path
           inkscape:connector-curvature="0"
           id="path5536"
           style="font-style:normal;font-variant:normal;font-weight:normal;font-stretch:normal;font-size:medium;line-height:1.25;font-family:'Christmas Wish';-inkscape-font-specification:'Christmas Wish';letter-spacing:0px;word-spacing:0px;fill:#183355;fill-opacity:1;stroke:none;stroke-width:0.26458332"
           d="m 40.526011,212.26386 c -0.41275,0.96308 -1.047749,1.49225 -1.407583,1.49225 -0.254,0 -0.433916,-0.14817 -0.6985,-0.14817 -0.137583,0 -0.28575,0.0529 -0.391583,0.16934 0.116417,-0.46567 1.979083,-1.41817 1.979083,-1.80975 0,-0.0529 -0.02117,-0.10584 -0.08467,-0.13759 -0.179916,0.0952 -0.529166,0.127 -0.751416,0.127 -0.433917,0 -0.814917,-0.127 -0.889,-0.34925 -0.137583,0.16934 -0.169333,0.30692 -0.169333,0.42334 0.03175,0.39158 0.306916,0.51858 0.6985,0.51858 0.148166,0 0.328083,-0.0423 0.497416,-0.10583 -0.5715,0.43391 -1.471083,0.92075 -1.471083,1.40758 0,0.127 0.02117,0.254 0.07408,0.3175 0.105834,-0.0423 0.169334,-0.0529 0.296334,-0.0529 0.169333,0 0.455083,0.13759 0.73025,0.13759 0.66675,0 1.322916,-1.10067 1.682749,-1.83092 0.03175,-0.0847 -0.04233,-0.13758 -0.09525,-0.15875 z" />
        <path
           inkscape:connector-curvature="0"
           id="path5538"
           style="font-style:normal;font-variant:normal;font-weight:normal;font-stretch:normal;font-size:medium;line-height:1.25;font-family:'Christmas Wish';-inkscape-font-specification:'Christmas Wish';letter-spacing:0px;word-spacing:0px;fill:#183355;fill-opacity:1;stroke:none;stroke-width:0.26458332"
           d="m 42.450028,212.24269 c -0.53975,0.98425 -1.217083,1.68275 -1.693333,1.68275 -0.127,0 -0.179917,-0.10583 -0.179917,-0.24341 0,-0.23284 0.09525,-0.53975 0.243417,-0.83609 0.529167,0.0423 1.04775,-0.508 1.04775,-0.81491 0,-0.20109 -0.127,-0.3175 -0.338667,-0.3175 -0.79375,0 -1.513416,0.86783 -1.513416,1.67216 0,0.4445 0.211666,0.74084 0.656166,0.74084 0.550334,0 1.227667,-0.64559 1.862667,-1.66159 0.0635,-0.10583 0,-0.1905 -0.08467,-0.22225 z m -0.846666,-0.29633 c 0.0635,0 0.08467,0.0212 0.08467,0.0847 0,0.17991 -0.359833,0.62441 -0.783166,0.64558 0.22225,-0.39158 0.508,-0.73025 0.6985,-0.73025 z" />
        <path
           inkscape:connector-curvature="0"
           id="path5540"
           style="font-style:normal;font-variant:normal;font-weight:normal;font-stretch:normal;font-size:medium;line-height:1.25;font-family:'Christmas Wish';-inkscape-font-specification:'Christmas Wish';letter-spacing:0px;word-spacing:0px;fill:#183355;fill-opacity:1;stroke:none;stroke-width:0.26458332"
           d="m 46.214387,215.79869 c -0.878416,0 -1.703916,-0.61383 -2.973916,-0.8255 0.508,-0.80433 0.846666,-1.72508 0.846666,-2.29658 0,-0.32808 -0.34925,-0.508 -0.582083,-0.508 0,0.70908 -0.687916,1.66158 -0.973666,1.66158 -0.09525,0 -0.127,-0.0317 -0.127,-0.13758 0,-0.46567 0.740833,-2.02142 1.587499,-1.85208 -1.015999,-0.64559 -2.201333,0.93133 -2.201333,1.60866 0,0.53975 0.306917,0.67734 0.613834,0.67734 0.306916,0 0.592666,-0.35984 0.8255,-0.73025 -0.169334,0.53975 -0.381,1.05833 -0.613834,1.51341 -0.08467,-0.0106 -0.169333,-0.0106 -0.254,-0.0106 -1.259416,0 -1.778,0.74083 -1.778,1.15358 0,0.34925 0.254,0.56092 0.624417,0.56092 0.66675,0 1.36525,-0.65617 1.915583,-1.4605 1.185333,0.24342 1.947333,0.98425 2.921,0.98425 0.613833,0 1.090083,-0.254 1.386417,-0.67733 -0.243417,0.1905 -0.73025,0.33866 -1.217084,0.33866 z m -5.132916,0.5715 c -0.1905,0 -0.3175,-0.0953 -0.3175,-0.3175 0,-0.35983 0.41275,-0.97366 1.598083,-0.97366 h 0.15875 c -0.433916,0.77258 -0.941916,1.29116 -1.439333,1.29116 z" />
        <path
           inkscape:connector-curvature="0"
           id="path5542"
           style="font-style:normal;font-variant:normal;font-weight:normal;font-stretch:normal;font-size:medium;line-height:1.25;font-family:'Christmas Wish';-inkscape-font-specification:'Christmas Wish';letter-spacing:0px;word-spacing:0px;fill:#183355;fill-opacity:1;stroke:none;stroke-width:0.26458332"
           d="m 47.37194,212.24269 c -0.179917,0.26459 -0.455084,0.53975 -0.9525,0.59267 0.0635,-0.20108 0.09525,-0.42333 0.09525,-0.635 0,-0.59267 -0.3175,-1.06892 -0.804334,-1.06892 -0.370416,0 -0.66675,0.28575 -0.66675,0.73025 0,0.0635 0,0.127 0.01058,0.1905 -0.328084,0.26459 -0.582084,0.6985 -0.582084,1.143 0,0.62442 0.370417,0.93134 0.772584,0.93134 0.423333,0 0.889,-0.47625 1.121833,-1.10067 0.53975,-0.0423 0.836083,-0.33867 1.037167,-0.5715 0.0635,-0.0847 0.04233,-0.15875 -0.03175,-0.21167 z m -2.148417,-0.381 c 0,-0.34925 0.211667,-0.55033 0.486833,-0.55033 0.391584,0 0.635,0.39158 0.635,0.889 0,0.22225 -0.03175,0.4445 -0.09525,0.64558 h -0.02117 c -0.306917,0 -0.60325,-0.13758 -0.79375,-0.37041 0.1905,-0.26459 0.423333,-0.49742 0.66675,-0.64559 -0.232834,-0.16933 -0.5715,-0.10583 -0.878417,0.0952 z m 0.105833,2.05317 c -0.148166,0 -0.243416,-0.14817 -0.243416,-0.42333 0,-0.28575 0.09525,-0.58209 0.254,-0.84667 0.211666,0.23283 0.518583,0.37042 0.846666,0.381 -0.201083,0.51858 -0.550333,0.889 -0.85725,0.889 z" />
        <circle
           style="opacity:0.97000002;fill:#183355;fill-opacity:1;fill-rule:nonzero;stroke:none;stroke-width:18.86499977;stroke-linecap:round;stroke-linejoin:bevel;stroke-miterlimit:4;stroke-dasharray:none;stroke-dashoffset:0;stroke-opacity:1"
           id="path5616"
           cx="39.296143"
           cy="211.40996"
           r="0.29331738" />
      </g>
    </g>
    <g
       id="g5852"
       transform="translate(-0.09045883)">
      <g
         transform="matrix(1.3808125,-0.36998759,0.36998759,1.3808125,-99.426048,-96.398041)"
         id="g5802">
        <path
           inkscape:connector-curvature="0"
           id="path5503"
           style="font-style:normal;font-variant:normal;font-weight:normal;font-stretch:normal;font-size:medium;line-height:1.25;font-family:'Christmas Wish';-inkscape-font-specification:'Christmas Wish';letter-spacing:0px;word-spacing:0px;fill:#183355;fill-opacity:1;stroke:none;stroke-width:0.26458332"
           d="m 33.431818,273.61715 c 0,-2.13783 2.211917,-4.7625 2.211917,-6.35 0,-0.74083 -0.433917,-1.13242 -1.04775,-1.13242 -0.836084,0 -1.947334,0.635 -3.58775,3.85234 0.0635,-0.39159 0.09525,-0.78317 0.09525,-1.17475 0,-1.72509 -0.889,-2.76225 -2.360084,-2.76225 -1.756833,0 -2.666999,1.35466 -2.666999,2.413 0,0.96308 0.592666,1.47108 1.333499,1.47108 0.592667,0 0.889,-0.13758 1.005417,-0.52917 -0.878417,0.28575 -2.032,-0.10583 -2.032,-1.17475 0,-0.89958 0.783167,-2.00025 2.360083,-2.00025 1.068917,0 1.7145,0.85725 1.7145,2.30717 0,1.524 -0.455083,3.45017 -0.772583,4.572 l -0.254,0.77258 c 0.0635,0.0106 0.370417,0.0529 0.635,-0.508 0.275167,-0.59266 0.645583,-2.02141 1.068917,-2.94216 0.98425,-2.23309 2.307166,-4.10634 3.386666,-4.10634 0.296334,0 0.465667,0.15875 0.465667,0.49742 0,1.44992 -2.19075,4.20158 -2.19075,6.42408 0,0.86784 0.4445,1.44992 1.132417,1.44992 0.423333,0 0.73025,-0.23283 0.783166,-0.49742 -0.201083,0.20109 -0.486833,0.3175 -0.677333,0.3175 -0.34925,0 -0.60325,-0.34925 -0.60325,-0.89958 z" />
        <path
           inkscape:connector-curvature="0"
           id="path5505"
           style="font-style:normal;font-variant:normal;font-weight:normal;font-stretch:normal;font-size:medium;line-height:1.25;font-family:'Christmas Wish';-inkscape-font-specification:'Christmas Wish';letter-spacing:0px;word-spacing:0px;fill:#183355;fill-opacity:1;stroke:none;stroke-width:0.26458332"
           d="m 37.720549,271.73332 c -0.179917,0.26458 -0.455084,0.53975 -0.9525,0.59266 0.0635,-0.20108 0.09525,-0.42333 0.09525,-0.635 0,-0.59266 -0.3175,-1.06891 -0.804334,-1.06891 -0.370416,0 -0.66675,0.28575 -0.66675,0.73025 0,0.0635 0,0.127 0.01058,0.1905 -0.328084,0.26458 -0.582084,0.6985 -0.582084,1.143 0,0.62441 0.370417,0.93133 0.772584,0.93133 0.423333,0 0.889,-0.47625 1.121833,-1.10067 0.53975,-0.0423 0.836083,-0.33866 1.037166,-0.5715 0.0635,-0.0847 0.04233,-0.15875 -0.03175,-0.21166 z m -2.148417,-0.381 c 0,-0.34925 0.211667,-0.55034 0.486833,-0.55034 0.391584,0 0.635,0.39159 0.635,0.889 0,0.22225 -0.03175,0.4445 -0.09525,0.64559 h -0.02117 c -0.306917,0 -0.60325,-0.13759 -0.79375,-0.37042 0.1905,-0.26458 0.423333,-0.49742 0.66675,-0.64558 -0.232834,-0.16934 -0.5715,-0.10584 -0.878417,0.0952 z m 0.105833,2.05316 c -0.148166,0 -0.243416,-0.14816 -0.243416,-0.42333 0,-0.28575 0.09525,-0.58208 0.254,-0.84667 0.211666,0.23284 0.518583,0.37042 0.846666,0.381 -0.201083,0.51859 -0.550333,0.889 -0.85725,0.889 z" />
        <path
           inkscape:connector-curvature="0"
           id="path5507"
           style="font-style:normal;font-variant:normal;font-weight:normal;font-stretch:normal;font-size:medium;line-height:1.25;font-family:'Christmas Wish';-inkscape-font-specification:'Christmas Wish';letter-spacing:0px;word-spacing:0px;fill:#183355;fill-opacity:1;stroke:none;stroke-width:0.26458332"
           d="m 41.567755,271.76507 c -0.201083,0.34925 -0.529166,0.6985 -0.931333,0.6985 -0.04233,0 -0.08467,0 -0.127,-0.0106 0.15875,-0.29633 0.254,-0.60325 0.254,-0.84666 0,-0.28575 -0.1905,-0.48684 -0.423333,-0.48684 -0.359833,0 -0.518583,0.35984 -0.518583,0.70909 0,0.30691 0.15875,0.59266 0.433916,0.73025 -0.275166,0.46566 -0.66675,0.87841 -0.9525,0.87841 -0.0635,0 -0.127,-0.0529 -0.127,-0.1905 0,-0.46566 0.47625,-1.03716 0.47625,-1.40758 0,-0.32808 -0.381,-0.51858 -0.635,-0.508 0,0.68792 -0.656166,2.10608 -1.195916,2.10608 -0.0635,0 -0.127,-0.0529 -0.127,-0.1905 0,-0.46566 0.486833,-1.03716 0.486833,-1.40758 0,-0.32808 -0.381,-0.508 -0.560917,-0.508 0,0.33867 -0.455083,1.05833 -0.455083,1.48167 0,0.52916 0.275167,0.80433 0.645583,0.80433 0.296334,0 0.592667,-0.26458 0.836084,-0.62442 0.0635,0.41275 0.3175,0.62442 0.635,0.62442 0.359833,0 0.8255,-0.46567 1.143,-0.99483 0.0635,0.0106 0.137583,0.0212 0.211666,0.0212 0.455084,0 0.79375,-0.34925 1.026583,-0.73025 0.03175,-0.0635 -0.01058,-0.13758 -0.09525,-0.14816 z m -1.566333,0.0635 c 0,-0.254 0.09525,-0.53975 0.338667,-0.53975 0.116417,0 0.243417,0.11641 0.243417,0.3175 0,0.22225 -0.09525,0.508 -0.243417,0.78316 -0.201083,-0.10583 -0.338667,-0.32808 -0.338667,-0.56091 z" />
        <path
           inkscape:connector-curvature="0"
           id="path5509"
           style="font-style:normal;font-variant:normal;font-weight:normal;font-stretch:normal;font-size:medium;line-height:1.25;font-family:'Christmas Wish';-inkscape-font-specification:'Christmas Wish';letter-spacing:0px;word-spacing:0px;fill:#183355;fill-opacity:1;stroke:none;stroke-width:0.26458332"
           d="m 43.485323,271.73332 c -0.53975,0.98425 -1.217083,1.68275 -1.693333,1.68275 -0.127,0 -0.179917,-0.10584 -0.179917,-0.24342 0,-0.23283 0.09525,-0.53975 0.243417,-0.83608 0.529166,0.0423 1.04775,-0.508 1.04775,-0.81492 0,-0.20108 -0.127,-0.3175 -0.338667,-0.3175 -0.79375,0 -1.513417,0.86783 -1.513417,1.67217 0,0.4445 0.211667,0.74083 0.656167,0.74083 0.550333,0 1.227667,-0.64558 1.862667,-1.66158 0.0635,-0.10584 0,-0.1905 -0.08467,-0.22225 z m -0.846667,-0.29634 c 0.0635,0 0.08467,0.0212 0.08467,0.0847 0,0.17992 -0.359833,0.62442 -0.783167,0.64558 0.22225,-0.39158 0.508,-0.73025 0.6985,-0.73025 z" />
        <path
           inkscape:connector-curvature="0"
           id="path5511"
           style="font-style:normal;font-variant:normal;font-weight:normal;font-stretch:normal;font-size:medium;line-height:1.25;font-family:'Christmas Wish';-inkscape-font-specification:'Christmas Wish';letter-spacing:0px;word-spacing:0px;fill:#183355;fill-opacity:1;stroke:none;stroke-width:0.26458332"
           d="m 47.249682,275.28932 c -0.878417,0 -1.703917,-0.61384 -2.973917,-0.8255 0.508,-0.80434 0.846667,-1.72509 0.846667,-2.29659 0,-0.32808 -0.34925,-0.508 -0.582083,-0.508 0,0.70909 -0.687917,1.66159 -0.973667,1.66159 -0.09525,0 -0.127,-0.0317 -0.127,-0.13759 0,-0.46566 0.740833,-2.02141 1.5875,-1.85208 -1.016,-0.64558 -2.201333,0.93133 -2.201333,1.60867 0,0.53975 0.306916,0.67733 0.613833,0.67733 0.306917,0 0.592667,-0.35983 0.8255,-0.73025 -0.169333,0.53975 -0.381,1.05833 -0.613833,1.51342 -0.08467,-0.0106 -0.169334,-0.0106 -0.254,-0.0106 -1.259417,0 -1.778,0.74084 -1.778,1.15359 0,0.34925 0.254,0.56091 0.624416,0.56091 0.66675,0 1.36525,-0.65616 1.915584,-1.4605 1.185333,0.24342 1.947333,0.98425 2.921,0.98425 0.613833,0 1.090083,-0.254 1.386416,-0.67733 -0.243416,0.1905 -0.73025,0.33867 -1.217083,0.33867 z m -5.132917,0.5715 c -0.1905,0 -0.3175,-0.0953 -0.3175,-0.3175 0,-0.35984 0.41275,-0.97367 1.598084,-0.97367 h 0.15875 c -0.433917,0.77258 -0.941917,1.29117 -1.439334,1.29117 z" />
        <path
           inkscape:connector-curvature="0"
           id="path5513"
           style="font-style:normal;font-variant:normal;font-weight:normal;font-stretch:normal;font-size:medium;line-height:1.25;font-family:'Christmas Wish';-inkscape-font-specification:'Christmas Wish';letter-spacing:0px;word-spacing:0px;fill:#183355;fill-opacity:1;stroke:none;stroke-width:0.26458332"
           d="m 48.407234,271.73332 c -0.179917,0.26458 -0.455083,0.53975 -0.9525,0.59266 0.0635,-0.20108 0.09525,-0.42333 0.09525,-0.635 0,-0.59266 -0.3175,-1.06891 -0.804333,-1.06891 -0.370417,0 -0.66675,0.28575 -0.66675,0.73025 0,0.0635 0,0.127 0.01058,0.1905 -0.328083,0.26458 -0.582083,0.6985 -0.582083,1.143 0,0.62441 0.370416,0.93133 0.772583,0.93133 0.423333,0 0.889,-0.47625 1.121833,-1.10067 0.53975,-0.0423 0.836084,-0.33866 1.037167,-0.5715 0.0635,-0.0847 0.04233,-0.15875 -0.03175,-0.21166 z m -2.148417,-0.381 c 0,-0.34925 0.211667,-0.55034 0.486834,-0.55034 0.391583,0 0.635,0.39159 0.635,0.889 0,0.22225 -0.03175,0.4445 -0.09525,0.64559 h -0.02117 c -0.306917,0 -0.60325,-0.13759 -0.79375,-0.37042 0.1905,-0.26458 0.423333,-0.49742 0.66675,-0.64558 -0.232833,-0.16934 -0.5715,-0.10584 -0.878417,0.0952 z m 0.105834,2.05316 c -0.148167,0 -0.243417,-0.14816 -0.243417,-0.42333 0,-0.28575 0.09525,-0.58208 0.254,-0.84667 0.211667,0.23284 0.518583,0.37042 0.846667,0.381 -0.201084,0.51859 -0.550334,0.889 -0.85725,0.889 z" />
      </g>
      <g
         transform="matrix(1.3808125,-0.36998759,0.36998759,1.3808125,-88.685911,-102.63742)"
         id="g5809">
        <path
           inkscape:connector-curvature="0"
           id="path5515"
           style="font-style:normal;font-variant:normal;font-weight:normal;font-stretch:normal;font-size:medium;line-height:1.25;font-family:'Christmas Wish';-inkscape-font-specification:'Christmas Wish';letter-spacing:0px;word-spacing:0px;fill:#183355;fill-opacity:1;stroke:none;stroke-width:0.26458332"
           d="m 35.273318,281.85807 c 0,-1.12183 -1.005417,-2.23308 -3.227917,-2.23308 -1.9685,0 -3.683,1.27 -3.683,2.51883 0,0.70908 0.550334,1.19592 1.407584,1.19592 0.889,0 1.55575,-0.49742 1.93675,-1.016 -0.328084,2.11666 -1.49225,4.99533 -3.037417,4.99533 -0.79375,0 -1.27,-0.508 -1.27,-1.23825 0,-0.9525 0.751417,-1.34408 1.30175,-1.34408 0.433917,0 0.8255,0.14816 1.11125,0.45508 0,-0.381 -0.306917,-0.81492 -0.9525,-0.81492 -0.677333,0 -1.640417,0.52917 -1.640417,1.70392 0,0.85725 0.677334,1.44992 1.629834,1.44992 1.524,0 2.656416,-1.92617 3.164416,-3.53484 1.312334,0.66675 -0.211666,3.81 2.529417,3.47134 -1.703917,-0.34925 -0.433917,-2.96334 -2.370667,-3.53484 1.418167,0.24342 3.100917,-0.64558 3.100917,-2.07433 z m -5.207,1.23825 c -0.762,0 -1.312333,-0.51858 -1.312333,-1.23825 0,-1.02658 1.534583,-2.05317 3.291416,-2.05317 1.788584,0 2.465917,0.96309 2.465917,1.91559 0,1.3335 -1.037167,2.0955 -2.455333,2.14841 0.169333,-0.5715 0.264583,-1.10066 0.264583,-1.47108 0,-0.381 -0.275167,-0.53975 -0.550333,-0.53975 -0.105834,0.3175 -0.783167,1.23825 -1.703917,1.23825 z" />
        <path
           inkscape:connector-curvature="0"
           id="path5517"
           style="font-style:normal;font-variant:normal;font-weight:normal;font-stretch:normal;font-size:medium;line-height:1.25;font-family:'Christmas Wish';-inkscape-font-specification:'Christmas Wish';letter-spacing:0px;word-spacing:0px;fill:#183355;fill-opacity:1;stroke:none;stroke-width:0.26458332"
           d="m 37.513842,285.09657 c -0.179916,0.26458 -0.455083,0.53975 -0.9525,0.59267 0.0635,-0.20109 0.09525,-0.42334 0.09525,-0.635 0,-0.59267 -0.3175,-1.06892 -0.804333,-1.06892 -0.370416,0 -0.66675,0.28575 -0.66675,0.73025 0,0.0635 0,0.127 0.01058,0.1905 -0.328084,0.26458 -0.582084,0.6985 -0.582084,1.143 0,0.62442 0.370417,0.93133 0.772584,0.93133 0.423333,0 0.888999,-0.47625 1.121833,-1.10066 0.53975,-0.0423 0.836083,-0.33867 1.037166,-0.5715 0.0635,-0.0847 0.04233,-0.15875 -0.03175,-0.21167 z m -2.148416,-0.381 c 0,-0.34925 0.211667,-0.55033 0.486833,-0.55033 0.391583,0 0.635,0.39158 0.635,0.889 0,0.22225 -0.03175,0.4445 -0.09525,0.64558 h -0.02117 c -0.306916,0 -0.603249,-0.13758 -0.793749,-0.37042 0.1905,-0.26458 0.423333,-0.49741 0.666749,-0.64558 -0.232833,-0.16933 -0.571499,-0.10583 -0.878416,0.0953 z m 0.105833,2.05317 c -0.148166,0 -0.243416,-0.14817 -0.243416,-0.42334 0,-0.28575 0.09525,-0.58208 0.254,-0.84666 0.211666,0.23283 0.518583,0.37041 0.846666,0.381 -0.201083,0.51858 -0.550333,0.889 -0.85725,0.889 z" />
        <path
           inkscape:connector-curvature="0"
           id="path5519"
           style="font-style:normal;font-variant:normal;font-weight:normal;font-stretch:normal;font-size:medium;line-height:1.25;font-family:'Christmas Wish';-inkscape-font-specification:'Christmas Wish';letter-spacing:0px;word-spacing:0px;fill:#183355;fill-opacity:1;stroke:none;stroke-width:0.26458332"
           d="m 40.472049,285.11774 c -0.486833,1.17475 -1.079499,1.651 -1.291166,1.651 -0.232833,0 -0.254,-0.30692 -0.433917,-0.5715 -0.105833,-0.14817 -0.232833,-0.28575 -0.497416,-0.33867 0.804333,-0.0212 1.566333,-0.40217 1.566333,-0.89958 0,-0.26459 -0.243417,-0.508 -0.613833,-0.508 -0.529167,0 -1.090084,0.508 -1.545167,1.22766 0.1905,-0.635 0.5715,-1.524 1.026583,-2.26483 1.132417,-0.15875 2.0955,-0.64558 2.0955,-1.21708 0,-0.27517 -0.1905,-0.42334 -0.47625,-0.42334 -0.740833,0 -1.545166,0.62442 -2.169583,1.50284 -0.08467,0.0106 -0.15875,0.0106 -0.243417,0.0106 -1.4605,0 -2.69875,-0.45508 -2.69875,-1.43933 0,-0.4445 0.381,-1.09009 1.195917,-1.09009 -0.709083,-0.40216 -1.524,0.27517 -1.524,0.94192 0,1.06892 1.259417,1.76742 3.026833,1.76742 h 0.116417 c -0.5715,0.87841 -0.973667,1.97908 -0.973667,2.9845 0,0.41275 0.232834,0.5715 0.359834,0.53975 0.07408,-1.15359 1.153583,-2.36009 1.80975,-2.36009 0.0635,0 0.09525,0.0423 0.09525,0.11642 0,0.28575 -0.804334,0.98425 -1.407584,1.04775 0.34925,0.28575 0.28575,1.31233 1.058334,1.31233 0.41275,0 1.121833,-0.67733 1.608666,-1.78858 0.03175,-0.10583 0.01058,-0.1905 -0.08467,-0.20108 z m -0.169333,-3.16442 c 0.1905,0 0.296333,0.0741 0.296333,0.24342 0,0.43391 -0.814916,0.83608 -1.777999,1.00541 0.465666,-0.70908 0.994833,-1.24883 1.481666,-1.24883 z" />
        <path
           inkscape:connector-curvature="0"
           id="path5521"
           style="font-style:normal;font-variant:normal;font-weight:normal;font-stretch:normal;font-size:medium;line-height:1.25;font-family:'Christmas Wish';-inkscape-font-specification:'Christmas Wish';letter-spacing:0px;word-spacing:0px;fill:#183355;fill-opacity:1;stroke:none;stroke-width:0.26458332"
           d="m 43.638616,285.14949 c -0.423333,0.83608 -1.100666,1.75683 -1.4605,1.75683 -0.08467,0 -0.127,-0.0741 -0.127,-0.16933 0,-0.4445 0.550334,-1.10067 0.550334,-1.59809 0,-0.254 -0.275167,-0.45508 -0.53975,-0.48683 -0.137584,0.80433 -0.973667,2.11667 -1.42875,2.11667 -0.09525,0 -0.127,-0.0635 -0.127,-0.15875 0,-0.33867 0.592666,-1.09009 0.592666,-1.57692 0,-0.32808 -0.3175,-0.45508 -0.560916,-0.45508 -0.02117,0.41275 -0.518584,1.13241 -0.518584,1.76741 0,0.30692 0.148167,0.635 0.486834,0.635 0.359833,0 0.719666,-0.26458 1.100666,-0.84666 -0.04233,0.14816 -0.0635,0.29633 -0.0635,0.381 0,0.20108 0.105834,0.59266 0.508,0.59266 0.560917,0 1.121834,-0.78316 1.672167,-1.778 0.05292,-0.0847 0,-0.14816 -0.08467,-0.17991 z" />
        <path
           inkscape:connector-curvature="0"
           id="path5523"
           style="font-style:normal;font-variant:normal;font-weight:normal;font-stretch:normal;font-size:medium;line-height:1.25;font-family:'Christmas Wish';-inkscape-font-specification:'Christmas Wish';letter-spacing:0px;word-spacing:0px;fill:#183355;fill-opacity:1;stroke:none;stroke-width:0.26458332"
           d="m 44.334801,285.87974 c -0.370417,-0.49742 1.259416,-2.7305 1.259416,-3.60892 0,-0.35983 -0.275167,-0.508 -0.53975,-0.47625 0,1.27 -1.5875,3.4925 -0.719666,4.08517 z m -0.28575,1.22766 c 0.3175,0 0.497416,-0.35983 0.497416,-0.64558 -0.15875,0.0106 -0.328083,-0.0423 -0.465666,-0.0423 -0.169334,0 -0.370417,0.11641 -0.370417,0.34925 0,0.1905 0.137583,0.33866 0.338667,0.33866 z" />
      </g>
      <g
         transform="matrix(1.3808125,-0.36998759,0.36998759,1.3808125,-114.9914,-88.865741)"
         id="g5794">
        <path
           inkscape:connector-curvature="0"
           id="path5479"
           style="font-style:normal;font-variant:normal;font-weight:normal;font-stretch:normal;font-size:medium;line-height:1.25;font-family:'Christmas Wish';-inkscape-font-specification:'Christmas Wish';letter-spacing:0px;word-spacing:0px;fill:#183355;fill-opacity:1;stroke:none;stroke-width:0.26458332"
           d="m 36.172901,253.78748 c 0,-0.62442 -0.518583,-1.02658 -1.312333,-1.02658 -1.058333,0 -2.328333,0.635 -2.328333,2.13783 0,0.28575 0.07408,0.58208 0.169333,0.89958 -0.264583,0.0317 -0.53975,0.0529 -0.8255,0.0529 -2.69875,0 -3.947583,-1.10067 -3.947583,-2.286 0,-0.59267 0.423333,-0.9525 1.11125,-0.9525 0.92075,0 1.693333,0.55033 2.116666,1.17475 -0.211666,-0.62442 -1.132416,-1.35467 -2.116666,-1.35467 -0.9525,0 -1.693334,0.47625 -1.693334,1.29117 0,1.2065 1.513417,2.29658 4.529667,2.29658 0.306917,0 0.60325,-0.0212 0.878417,-0.0529 0.306916,0.85725 0.79375,1.80975 0.79375,2.71991 0,1.18534 -0.994834,2.2225 -2.942167,2.2225 -1.143,0 -2.804583,-0.67733 -2.804583,-2.032 0,-0.92075 0.751416,-1.56633 1.7145,-1.56633 1.121833,0 1.905,0.48683 2.54,1.21708 0.169333,-0.87841 -0.814917,-1.56633 -2.25425,-1.56633 -1.132417,0 -2.25425,0.6985 -2.25425,1.85208 0,1.5875 1.820333,2.27542 3.058583,2.27542 2.518833,0 3.767667,-1.30175 3.767667,-2.88925 0,-0.78317 -0.4445,-1.61925 -0.804334,-2.38125 1.534584,-0.381 2.6035,-1.23825 2.6035,-2.032 z m -2.677583,1.87325 c -0.211667,-0.46567 -0.381,-0.89958 -0.381,-1.29117 0,-0.99483 0.910167,-1.42875 1.74625,-1.42875 0.687917,0 1.132417,0.32809 1.132417,0.84667 0,0.71967 -1.016,1.524 -2.497667,1.87325 z" />
        <path
           inkscape:connector-curvature="0"
           id="path5481"
           style="font-style:normal;font-variant:normal;font-weight:normal;font-stretch:normal;font-size:medium;line-height:1.25;font-family:'Christmas Wish';-inkscape-font-specification:'Christmas Wish';letter-spacing:0px;word-spacing:0px;fill:#183355;fill-opacity:1;stroke:none;stroke-width:0.26458332"
           d="m 37.902615,258.39123 c -0.41275,0.96308 -1.04775,1.49225 -1.407584,1.49225 -0.254,0 -0.433916,-0.14817 -0.6985,-0.14817 -0.137583,0 -0.28575,0.0529 -0.391583,0.16934 0.116417,-0.46567 1.979083,-1.41817 1.979083,-1.80975 0,-0.0529 -0.02117,-0.10584 -0.08467,-0.13759 -0.179917,0.0952 -0.529167,0.127 -0.751417,0.127 -0.433917,0 -0.814917,-0.127 -0.889,-0.34925 -0.137583,0.16934 -0.169333,0.30692 -0.169333,0.42334 0.03175,0.39158 0.306916,0.51858 0.6985,0.51858 0.148166,0 0.328083,-0.0423 0.497416,-0.10583 -0.5715,0.43391 -1.471083,0.92075 -1.471083,1.40758 0,0.127 0.02117,0.254 0.07408,0.3175 0.105834,-0.0423 0.169334,-0.0529 0.296334,-0.0529 0.169333,0 0.455083,0.13759 0.73025,0.13759 0.66675,0 1.322916,-1.10067 1.68275,-1.83092 0.03175,-0.0847 -0.04233,-0.13758 -0.09525,-0.15875 z" />
        <path
           inkscape:connector-curvature="0"
           id="path5483"
           style="font-style:normal;font-variant:normal;font-weight:normal;font-stretch:normal;font-size:medium;line-height:1.25;font-family:'Christmas Wish';-inkscape-font-specification:'Christmas Wish';letter-spacing:0px;word-spacing:0px;fill:#183355;fill-opacity:1;stroke:none;stroke-width:0.26458332"
           d="m 37.974548,260.2539 c 0.772584,0 1.74625,-1.32292 1.905,-1.66159 0.04233,-0.0741 -0.01058,-0.17991 -0.08467,-0.1905 -0.254,0.51859 -1.17475,1.651 -1.725084,1.651 -0.127,0 -0.22225,-0.0741 -0.22225,-0.26458 0,-0.73025 0.677334,-1.778 0.994834,-1.778 0.08467,0 0.137583,0.0423 0.137583,0.15875 0,0.17992 -0.05292,0.34925 -0.169333,0.55033 0.275166,-0.20108 0.34925,-0.42333 0.34925,-0.58208 -0.01058,-0.1905 -0.201084,-0.3175 -0.423334,-0.3175 -0.751416,0 -1.471083,0.9525 -1.471083,1.61925 0,0.58208 0.328083,0.81492 0.709083,0.81492 z" />
        <path
           inkscape:connector-curvature="0"
           id="path5485"
           style="font-style:normal;font-variant:normal;font-weight:normal;font-stretch:normal;font-size:medium;line-height:1.25;font-family:'Christmas Wish';-inkscape-font-specification:'Christmas Wish';letter-spacing:0px;word-spacing:0px;fill:#183355;fill-opacity:1;stroke:none;stroke-width:0.26458332"
           d="m 42.0574,258.39123 c -0.41275,0.96308 -1.04775,1.49225 -1.407584,1.49225 -0.254,0 -0.433916,-0.14817 -0.6985,-0.14817 -0.137583,0 -0.28575,0.0529 -0.391583,0.16934 0.116417,-0.46567 1.979083,-1.41817 1.979083,-1.80975 0,-0.0529 -0.02117,-0.10584 -0.08467,-0.13759 -0.179917,0.0952 -0.529167,0.127 -0.751417,0.127 -0.433917,0 -0.814917,-0.127 -0.889,-0.34925 -0.137583,0.16934 -0.169333,0.30692 -0.169333,0.42334 0.03175,0.39158 0.306916,0.51858 0.6985,0.51858 0.148166,0 0.328083,-0.0423 0.497416,-0.10583 -0.5715,0.43391 -1.471083,0.92075 -1.471083,1.40758 0,0.127 0.02117,0.254 0.07408,0.3175 0.105834,-0.0423 0.169334,-0.0529 0.296334,-0.0529 0.169333,0 0.455083,0.13759 0.73025,0.13759 0.66675,0 1.322916,-1.10067 1.68275,-1.83092 0.03175,-0.0847 -0.04233,-0.13758 -0.09525,-0.15875 z" />
        <path
           inkscape:connector-curvature="0"
           id="path5487"
           style="font-style:normal;font-variant:normal;font-weight:normal;font-stretch:normal;font-size:medium;line-height:1.25;font-family:'Christmas Wish';-inkscape-font-specification:'Christmas Wish';letter-spacing:0px;word-spacing:0px;fill:#183355;fill-opacity:1;stroke:none;stroke-width:0.26458332"
           d="m 43.981417,258.37006 c -0.53975,0.98425 -1.217084,1.68275 -1.693334,1.68275 -0.127,0 -0.179916,-0.10583 -0.179916,-0.24341 0,-0.23284 0.09525,-0.53975 0.243416,-0.83609 0.529167,0.0423 1.04775,-0.508 1.04775,-0.81491 0,-0.20109 -0.127,-0.3175 -0.338666,-0.3175 -0.79375,0 -1.513417,0.86783 -1.513417,1.67216 0,0.4445 0.211667,0.74084 0.656167,0.74084 0.550333,0 1.227666,-0.64559 1.862666,-1.66159 0.0635,-0.10583 0,-0.1905 -0.08467,-0.22225 z m -0.846667,-0.29633 c 0.0635,0 0.08467,0.0212 0.08467,0.0847 0,0.17991 -0.359834,0.62441 -0.783167,0.64558 0.22225,-0.39158 0.508,-0.73025 0.6985,-0.73025 z" />
        <path
           inkscape:connector-curvature="0"
           id="path5489"
           style="font-style:normal;font-variant:normal;font-weight:normal;font-stretch:normal;font-size:medium;line-height:1.25;font-family:'Christmas Wish';-inkscape-font-specification:'Christmas Wish';letter-spacing:0px;word-spacing:0px;fill:#183355;fill-opacity:1;stroke:none;stroke-width:0.26458332"
           d="m 45.978359,258.37006 c -0.232833,0.34925 -0.677333,0.53975 -1.153583,0.70909 -0.169334,-0.26459 -0.4445,-0.46567 -0.645584,-0.67734 0.116417,-0.20108 0.201084,-0.37041 0.201084,-0.56091 0,-0.20109 -0.127,-0.32809 -0.306917,-0.32809 -0.201083,0 -0.370417,0.20109 -0.370417,0.52917 0,0.65617 0.423334,0.78317 0.529167,1.24883 -0.41275,0.16934 -0.719667,0.41275 -0.719667,0.77259 0,0.254 0.179917,0.46566 0.518584,0.46566 0.455083,0 0.9525,-0.39158 0.9525,-0.97366 0,-0.11642 -0.02117,-0.22225 -0.0635,-0.32809 0.423333,-0.14816 0.836083,-0.33866 1.11125,-0.67733 0.04233,-0.0635 0.03175,-0.14817 -0.05292,-0.17992 z m -1.905,-0.67733 c 0.0635,0 0.127,0.0423 0.127,0.14817 0,0.13758 -0.05292,0.27516 -0.148167,0.42333 -0.08467,-0.10583 -0.137583,-0.22225 -0.137583,-0.34925 0,-0.13758 0.08467,-0.22225 0.15875,-0.22225 z m -0.15875,2.6035 c -0.148167,0 -0.22225,-0.0952 -0.22225,-0.23283 0,-0.24342 0.22225,-0.45509 0.560917,-0.60325 v 0.0423 c 0,0.49742 -0.179917,0.79375 -0.338667,0.79375 z" />
        <path
           inkscape:connector-curvature="0"
           id="path5491"
           style="font-style:normal;font-variant:normal;font-weight:normal;font-stretch:normal;font-size:medium;line-height:1.25;font-family:'Christmas Wish';-inkscape-font-specification:'Christmas Wish';letter-spacing:0px;word-spacing:0px;fill:#183355;fill-opacity:1;stroke:none;stroke-width:0.26458332"
           d="m 47.909817,258.39123 c -0.518583,0.97367 -1.217083,1.778 -1.545166,1.778 -0.15875,0 -0.232834,-0.127 -0.232834,-0.47625 0,-0.37042 0.08467,-0.81492 0.22225,-1.29117 0.98425,-0.78316 2.307167,-2.19075 2.307167,-2.97391 0,-0.27517 -0.1905,-0.42334 -0.433917,-0.42334 -1.037166,0 -2.656416,2.70934 -2.656416,4.40267 0,0.74083 0.359833,0.97367 0.677333,0.97367 0.465667,0 1.11125,-0.70909 1.735667,-1.79917 0.05292,-0.0953 0,-0.16933 -0.07408,-0.1905 z m 0.3175,-3.20675 c 0.137584,0 0.254,0.0529 0.254,0.24342 0,0.61383 -1.037166,1.86266 -2.042583,2.68816 0.465667,-1.42875 1.3335,-2.93158 1.788583,-2.93158 z" />
        <path
           inkscape:connector-curvature="0"
           id="path5493"
           style="font-style:normal;font-variant:normal;font-weight:normal;font-stretch:normal;font-size:medium;line-height:1.25;font-family:'Christmas Wish';-inkscape-font-specification:'Christmas Wish';letter-spacing:0px;word-spacing:0px;fill:#183355;fill-opacity:1;stroke:none;stroke-width:0.26458332"
           d="m 48.317773,257.50223 c 0.3175,0 0.497416,-0.34925 0.497416,-0.64558 -0.15875,0.0106 -0.328083,-0.0317 -0.465666,-0.0317 -0.169334,0 -0.370417,0.0952 -0.370417,0.34925 0,0.20108 0.137583,0.32808 0.338667,0.32808 z m -0.529167,2.87867 c 0.560917,0 1.407583,-1.2065 1.703916,-1.78859 0.04233,-0.0741 -0.01058,-0.15875 -0.0635,-0.17991 -0.433916,0.78316 -1.164166,1.66158 -1.418166,1.66158 -0.05292,0 -0.08467,-0.0317 -0.08467,-0.0847 0,-0.35983 0.624417,-1.2065 0.624417,-1.64041 0,-0.27517 -0.328083,-0.45509 -0.635,-0.45509 0,0.45509 -0.518583,1.16417 -0.518583,1.91559 0,0.35983 0.148166,0.5715 0.391583,0.5715 z" />
        <path
           inkscape:connector-curvature="0"
           id="path5495"
           style="font-style:normal;font-variant:normal;font-weight:normal;font-stretch:normal;font-size:medium;line-height:1.25;font-family:'Christmas Wish';-inkscape-font-specification:'Christmas Wish';letter-spacing:0px;word-spacing:0px;fill:#183355;fill-opacity:1;stroke:none;stroke-width:0.26458332"
           d="m 53.30864,258.40181 c -0.201083,0.34925 -0.529166,0.6985 -0.931333,0.6985 -0.04233,0 -0.08467,0 -0.127,-0.0106 0.15875,-0.29633 0.254,-0.60325 0.254,-0.84667 0,-0.28575 -0.1905,-0.48683 -0.423333,-0.48683 -0.359834,0 -0.518584,0.35983 -0.518584,0.70908 0,0.30692 0.15875,0.59267 0.433917,0.73025 -0.275167,0.46567 -0.66675,0.87842 -0.9525,0.87842 -0.0635,0 -0.127,-0.0529 -0.127,-0.1905 0,-0.46567 0.47625,-1.03717 0.47625,-1.40758 0,-0.32809 -0.381,-0.51859 -0.635,-0.508 0,0.68791 -0.656167,2.10608 -1.195917,2.10608 -0.0635,0 -0.127,-0.0529 -0.127,-0.1905 0,-0.46567 0.486834,-1.03717 0.486834,-1.40758 0,-0.32809 -0.381,-0.508 -0.560917,-0.508 0,0.33866 -0.455083,1.05833 -0.455083,1.48166 0,0.52917 0.275166,0.80434 0.645583,0.80434 0.296333,0 0.592667,-0.26459 0.836083,-0.62442 0.0635,0.41275 0.3175,0.62442 0.635,0.62442 0.359834,0 0.8255,-0.46567 1.143,-0.99484 0.0635,0.0106 0.137584,0.0212 0.211667,0.0212 0.455083,0 0.79375,-0.34925 1.026583,-0.73025 0.03175,-0.0635 -0.01058,-0.13758 -0.09525,-0.14817 z m -1.566333,0.0635 c 0,-0.254 0.09525,-0.53975 0.338667,-0.53975 0.116416,0 0.243416,0.11642 0.243416,0.3175 0,0.22225 -0.09525,0.508 -0.243416,0.78317 -0.201084,-0.10583 -0.338667,-0.32808 -0.338667,-0.56092 z" />
        <path
           inkscape:connector-curvature="0"
           id="path5497"
           style="font-style:normal;font-variant:normal;font-weight:normal;font-stretch:normal;font-size:medium;line-height:1.25;font-family:'Christmas Wish';-inkscape-font-specification:'Christmas Wish';letter-spacing:0px;word-spacing:0px;fill:#183355;fill-opacity:1;stroke:none;stroke-width:0.26458332"
           d="m 55.226209,258.37006 c -0.53975,0.98425 -1.217084,1.68275 -1.693334,1.68275 -0.127,0 -0.179916,-0.10583 -0.179916,-0.24341 0,-0.23284 0.09525,-0.53975 0.243416,-0.83609 0.529167,0.0423 1.04775,-0.508 1.04775,-0.81491 0,-0.20109 -0.127,-0.3175 -0.338666,-0.3175 -0.79375,0 -1.513417,0.86783 -1.513417,1.67216 0,0.4445 0.211667,0.74084 0.656167,0.74084 0.550333,0 1.227666,-0.64559 1.862666,-1.66159 0.0635,-0.10583 0,-0.1905 -0.08467,-0.22225 z m -0.846667,-0.29633 c 0.0635,0 0.08467,0.0212 0.08467,0.0847 0,0.17991 -0.359834,0.62441 -0.783167,0.64558 0.22225,-0.39158 0.508,-0.73025 0.6985,-0.73025 z" />
        <path
           inkscape:connector-curvature="0"
           id="path5499"
           style="font-style:normal;font-variant:normal;font-weight:normal;font-stretch:normal;font-size:medium;line-height:1.25;font-family:'Christmas Wish';-inkscape-font-specification:'Christmas Wish';letter-spacing:0px;word-spacing:0px;fill:#183355;fill-opacity:1;stroke:none;stroke-width:0.26458332"
           d="m 58.990567,261.92606 c -0.878417,0 -1.703917,-0.61383 -2.973917,-0.8255 0.508,-0.80433 0.846667,-1.72508 0.846667,-2.29658 0,-0.32808 -0.34925,-0.508 -0.582084,-0.508 0,0.70908 -0.687916,1.66158 -0.973666,1.66158 -0.09525,0 -0.127,-0.0317 -0.127,-0.13758 0,-0.46567 0.740833,-2.02142 1.5875,-1.85208 -1.016,-0.64559 -2.201333,0.93133 -2.201333,1.60866 0,0.53975 0.306916,0.67734 0.613833,0.67734 0.306916,0 0.592666,-0.35984 0.8255,-0.73025 -0.169334,0.53975 -0.381,1.05833 -0.613834,1.51341 -0.08467,-0.0106 -0.169333,-0.0106 -0.253999,-0.0106 -1.259417,0 -1.778,0.74083 -1.778,1.15358 0,0.34925 0.254,0.56092 0.624416,0.56092 0.66675,0 1.36525,-0.65617 1.915583,-1.4605 1.185334,0.24342 1.947334,0.98425 2.921,0.98425 0.613834,0 1.090084,-0.254 1.386417,-0.67733 -0.243417,0.1905 -0.73025,0.33866 -1.217083,0.33866 z m -5.132917,0.5715 c -0.1905,0 -0.3175,-0.0953 -0.3175,-0.3175 0,-0.35983 0.41275,-0.97366 1.598084,-0.97366 h 0.158749 c -0.433916,0.77258 -0.941916,1.29116 -1.439333,1.29116 z" />
        <path
           inkscape:connector-curvature="0"
           id="path5501"
           style="font-style:normal;font-variant:normal;font-weight:normal;font-stretch:normal;font-size:medium;line-height:1.25;font-family:'Christmas Wish';-inkscape-font-specification:'Christmas Wish';letter-spacing:0px;word-spacing:0px;fill:#183355;fill-opacity:1;stroke:none;stroke-width:0.26458332"
           d="m 60.148119,258.37006 c -0.179917,0.26459 -0.455083,0.53975 -0.9525,0.59267 0.0635,-0.20108 0.09525,-0.42333 0.09525,-0.635 0,-0.59267 -0.3175,-1.06892 -0.804333,-1.06892 -0.370417,0 -0.66675,0.28575 -0.66675,0.73025 0,0.0635 0,0.127 0.01058,0.1905 -0.328083,0.26459 -0.582083,0.6985 -0.582083,1.143 0,0.62442 0.370416,0.93134 0.772583,0.93134 0.423333,0 0.889,-0.47625 1.121833,-1.10067 0.53975,-0.0423 0.836084,-0.33867 1.037167,-0.5715 0.0635,-0.0847 0.04233,-0.15875 -0.03175,-0.21167 z m -2.148417,-0.381 c 0,-0.34925 0.211667,-0.55033 0.486834,-0.55033 0.391583,0 0.635,0.39158 0.635,0.889 0,0.22225 -0.03175,0.4445 -0.09525,0.64558 h -0.02117 c -0.306917,0 -0.60325,-0.13758 -0.79375,-0.37041 0.1905,-0.26459 0.423333,-0.49742 0.66675,-0.64559 -0.232833,-0.16933 -0.5715,-0.10583 -0.878417,0.0952 z m 0.105834,2.05317 c -0.148167,0 -0.243417,-0.14817 -0.243417,-0.42333 0,-0.28575 0.09525,-0.58209 0.254,-0.84667 0.211667,0.23283 0.518583,0.37042 0.846667,0.381 -0.201084,0.51858 -0.550334,0.889 -0.85725,0.889 z" />
        <path
           style="fill:#183355;fill-opacity:1;stroke:none;stroke-width:0.26458332px;stroke-linecap:butt;stroke-linejoin:miter;stroke-opacity:1"
           d="m 42.513063,260.63546 c -0.883071,0.26156 -0.69381,-0.47371 -0.508651,-0.57806 l -0.162618,-0.006 c -0.323328,0.31606 -0.136732,1.14354 0.768756,0.87701 z"
           id="path5612-5"
           inkscape:connector-curvature="0"
           sodipodi:nodetypes="ccccc" />
        <path
           style="fill:#183355;fill-opacity:1;stroke:none;stroke-width:0.26458332px;stroke-linecap:butt;stroke-linejoin:miter;stroke-opacity:1"
           d="m 44.248634,257.36388 0.252043,0.16494 0.613087,-0.99667 -0.385687,-0.33917 c -0.007,0.28522 -0.179444,0.87378 -0.479444,1.17091 z"
           id="path5610-9"
           inkscape:connector-curvature="0"
           sodipodi:nodetypes="cccccc" />
      </g>
    </g>
    <g
       aria-label="oraz"
       style="font-style:normal;font-weight:normal;font-size:10.58333302px;line-height:1.25;font-family:sans-serif;letter-spacing:0px;word-spacing:0px;fill:#183355;fill-opacity:1;stroke:none;stroke-width:0.26458332"
       id="text5813"
       transform="matrix(1.2201043,-0.32692596,0.32692596,1.2201043,-84.404025,-29.354256)">
      <path
         d="m 45.765693,224.57416 c -0.179917,0.26458 -0.455083,0.53975 -0.9525,0.59267 0.0635,-0.20109 0.09525,-0.42334 0.09525,-0.635 0,-0.59267 -0.3175,-1.06892 -0.804333,-1.06892 -0.370417,0 -0.66675,0.28575 -0.66675,0.73025 0,0.0635 0,0.127 0.01058,0.1905 -0.328083,0.26458 -0.582083,0.6985 -0.582083,1.143 0,0.62442 0.370416,0.93133 0.772583,0.93133 0.423333,0 0.889,-0.47625 1.121833,-1.10066 0.53975,-0.0423 0.836084,-0.33867 1.037167,-0.5715 0.0635,-0.0847 0.04233,-0.15875 -0.03175,-0.21167 z m -2.148417,-0.381 c 0,-0.34925 0.211667,-0.55033 0.486834,-0.55033 0.391583,0 0.635,0.39158 0.635,0.889 0,0.22225 -0.03175,0.4445 -0.09525,0.64558 h -0.02117 c -0.306917,0 -0.60325,-0.13758 -0.79375,-0.37042 0.1905,-0.26458 0.423333,-0.49741 0.66675,-0.64558 -0.232833,-0.16933 -0.5715,-0.10583 -0.878417,0.0953 z m 0.105834,2.05317 c -0.148167,0 -0.243417,-0.14817 -0.243417,-0.42334 0,-0.28575 0.09525,-0.58208 0.254,-0.84666 0.211667,0.23283 0.518583,0.37041 0.846667,0.381 -0.201084,0.51858 -0.550334,0.889 -0.85725,0.889 z"
         style="font-style:normal;font-variant:normal;font-weight:normal;font-stretch:normal;font-family:'Christmas Wish';-inkscape-font-specification:'Christmas Wish';fill:#183355;fill-opacity:1;stroke-width:0.26458332"
         id="path5815"
         inkscape:connector-curvature="0" />
      <path
         d="m 47.919567,224.59533 c -0.402167,0.80433 -1.524,1.80975 -1.957917,1.80975 -0.04233,0 -0.05292,-0.0212 -0.05292,-0.0635 0,-0.51859 1.132417,-1.32292 1.132417,-1.76742 0,-0.16933 -0.116417,-0.29633 -0.3175,-0.41275 -0.232833,0.28575 -0.497417,0.46567 -0.751417,0.46567 -0.03175,0 -0.05292,0 -0.08467,-0.0106 0.116416,-0.23283 0.15875,-0.39158 0.15875,-0.51858 0,-0.13758 -0.09525,-0.29633 -0.275167,-0.29633 -0.179917,0 -0.328083,0.24341 -0.328083,0.47625 0,0.381 0.254,0.52916 0.529166,0.52916 0.05292,0 0.09525,-0.0106 0.137584,-0.0212 -0.306917,0.35983 -0.656167,0.9525 -0.656167,1.31233 0,0.30692 0.1905,0.48683 0.465667,0.48683 0.613833,0 1.68275,-1.03716 2.074333,-1.79916 0.03175,-0.0847 0,-0.16934 -0.07408,-0.1905 z m -2.148417,-0.61384 c 0.0635,0 0.08467,0.0635 0.08467,0.11642 0,0.0847 -0.04233,0.254 -0.127,0.45508 -0.07408,-0.0529 -0.116417,-0.13758 -0.116417,-0.27516 0,-0.15875 0.08467,-0.29634 0.15875,-0.29634 z"
         style="font-style:normal;font-variant:normal;font-weight:normal;font-stretch:normal;font-family:'Christmas Wish';-inkscape-font-specification:'Christmas Wish';fill:#183355;fill-opacity:1;stroke-width:0.26458332"
         id="path5817"
         inkscape:connector-curvature="0" />
      <path
         d="m 50.534477,224.65883 c -0.381,0.9525 -1.0795,1.7145 -1.36525,1.7145 -0.03175,0 -0.0635,-0.0318 -0.0635,-0.0847 0,-0.254 0.455083,-0.84667 0.455083,-1.30175 0,-0.30692 -0.34925,-0.4445 -0.592666,-0.48683 0.07408,0.508 -0.645584,1.64041 -0.994834,1.64041 -0.03175,0 -0.08467,-0.0212 -0.08467,-0.127 0,-0.39158 0.5715,-1.94733 1.598083,-1.82033 -0.783167,-0.66675 -2.233083,0.62442 -2.233083,1.70392 0,0.37041 0.296333,0.56091 0.518583,0.56091 0.338667,0 0.66675,-0.34925 0.92075,-0.74083 -0.02117,0.11642 -0.04233,0.23283 -0.04233,0.3175 0,0.37042 0.1905,0.55033 0.433916,0.55033 0.402167,0 1.11125,-0.75141 1.545167,-1.76741 0.04233,-0.0847 -0.01058,-0.15875 -0.09525,-0.15875 z"
         style="font-style:normal;font-variant:normal;font-weight:normal;font-stretch:normal;font-family:'Christmas Wish';-inkscape-font-specification:'Christmas Wish';fill:#183355;fill-opacity:1;stroke-width:0.26458332"
         id="path5819"
         inkscape:connector-curvature="0" />
      <path
         d="m 52.851731,224.59533 c -0.41275,0.96308 -1.04775,1.49225 -1.407584,1.49225 -0.254,0 -0.433916,-0.14817 -0.6985,-0.14817 -0.137583,0 -0.28575,0.0529 -0.391583,0.16933 0.116417,-0.46566 1.979083,-1.41816 1.979083,-1.80975 0,-0.0529 -0.02117,-0.10583 -0.08467,-0.13758 -0.179917,0.0953 -0.529167,0.127 -0.751417,0.127 -0.433917,0 -0.814917,-0.127 -0.889,-0.34925 -0.137583,0.16933 -0.169333,0.30692 -0.169333,0.42333 0.03175,0.39159 0.306916,0.51859 0.6985,0.51859 0.148166,0 0.328083,-0.0423 0.497416,-0.10584 -0.5715,0.43392 -1.471083,0.92075 -1.471083,1.40759 0,0.127 0.02117,0.254 0.07408,0.3175 0.105834,-0.0423 0.169334,-0.0529 0.296334,-0.0529 0.169333,0 0.455083,0.13758 0.73025,0.13758 0.66675,0 1.322916,-1.10066 1.68275,-1.83091 0.03175,-0.0847 -0.04233,-0.13759 -0.09525,-0.15875 z"
         style="font-style:normal;font-variant:normal;font-weight:normal;font-stretch:normal;font-family:'Christmas Wish';-inkscape-font-specification:'Christmas Wish';fill:#183355;fill-opacity:1;stroke-width:0.26458332"
         id="path5821"
         inkscape:connector-curvature="0" />
    </g>
  </g>
</svg>
